<svg width="16" height="21" viewBox="0 0 16 21" fill="none" xmlns="http://www.w3.org/2000/svg">
<path fill-rule="evenodd" clip-rule="evenodd" d="M10.3957 0.264994C10.3957 0.194713 10.3703 0.127311 10.3251 0.077615C10.28 0.027919 10.2188 0 10.1549 0H3.41459C2.7123 0 2.03877 0.307108 1.54218 0.853764C1.04559 1.40042 0.766602 2.14184 0.766602 2.91493V17.7546C0.766602 18.5277 1.04559 19.2691 1.54218 19.8158C2.03877 20.3624 2.7123 20.6695 3.41459 20.6695H13.0436C13.7459 20.6695 14.4195 20.3624 14.9161 19.8158C15.4127 19.2691 15.6916 18.5277 15.6916 17.7546V7.31065C15.6916 7.24037 15.6663 7.17297 15.6211 7.12327C15.576 7.07358 15.5148 7.04566 15.4509 7.04566H11.1178C10.9263 7.04566 10.7426 6.9619 10.6072 6.81281C10.4717 6.66372 10.3957 6.46152 10.3957 6.25068V0.264994ZM11.1178 10.5998C11.3094 10.5998 11.4931 10.6835 11.6285 10.8326C11.7639 10.9817 11.84 11.1839 11.84 11.3947C11.84 11.6056 11.7639 11.8078 11.6285 11.9569C11.4931 12.106 11.3094 12.1897 11.1178 12.1897H5.3404C5.14887 12.1897 4.96518 12.106 4.82975 11.9569C4.69431 11.8078 4.61822 11.6056 4.61822 11.3947C4.61822 11.1839 4.69431 10.9817 4.82975 10.8326C4.96518 10.6835 5.14887 10.5998 5.3404 10.5998H11.1178ZM11.1178 14.8397C11.3094 14.8397 11.4931 14.9234 11.6285 15.0725C11.7639 15.2216 11.84 15.4238 11.84 15.6346C11.84 15.8455 11.7639 16.0477 11.6285 16.1968C11.4931 16.3459 11.3094 16.4296 11.1178 16.4296H5.3404C5.14887 16.4296 4.96518 16.3459 4.82975 16.1968C4.69431 16.0477 4.61822 15.8455 4.61822 15.6346C4.61822 15.4238 4.69431 15.2216 4.82975 15.0725C4.96518 14.9234 5.14887 14.8397 5.3404 14.8397H11.1178Z" fill="#B7B6B3"/>
</svg>
