<svg width="16" height="21" viewBox="0 0 16 21" fill="none" xmlns="http://www.w3.org/2000/svg">
<path fill-rule="evenodd" clip-rule="evenodd" d="M10.3959 0.264994C10.3959 0.194713 10.3705 0.127311 10.3254 0.077615C10.2802 0.027919 10.219 0 10.1552 0H3.41484C2.71255 0 2.03902 0.307108 1.54242 0.853764C1.04583 1.40042 0.766846 2.14184 0.766846 2.91493V17.7546C0.766846 18.5277 1.04583 19.2691 1.54242 19.8158C2.03902 20.3624 2.71255 20.6695 3.41484 20.6695H13.0439C13.7462 20.6695 14.4197 20.3624 14.9163 19.8158C15.4129 19.2691 15.6919 18.5277 15.6919 17.7546V7.31065C15.6919 7.24037 15.6665 7.17297 15.6214 7.12327C15.5762 7.07358 15.515 7.04566 15.4512 7.04566H11.1181C10.9265 7.04566 10.7429 6.9619 10.6074 6.81281C10.472 6.66372 10.3959 6.46152 10.3959 6.25068V0.264994ZM11.1181 10.5998C11.3096 10.5998 11.4933 10.6835 11.6287 10.8326C11.7642 10.9817 11.8403 11.1839 11.8403 11.3947C11.8403 11.6056 11.7642 11.8078 11.6287 11.9569C11.4933 12.106 11.3096 12.1897 11.1181 12.1897H5.34065C5.14911 12.1897 4.96542 12.106 4.82999 11.9569C4.69455 11.8078 4.61847 11.6056 4.61847 11.3947C4.61847 11.1839 4.69455 10.9817 4.82999 10.8326C4.96542 10.6835 5.14911 10.5998 5.34065 10.5998H11.1181ZM11.1181 14.8397C11.3096 14.8397 11.4933 14.9234 11.6287 15.0725C11.7642 15.2216 11.8403 15.4238 11.8403 15.6346C11.8403 15.8455 11.7642 16.0477 11.6287 16.1968C11.4933 16.3459 11.3096 16.4296 11.1181 16.4296H5.34065C5.14911 16.4296 4.96542 16.3459 4.82999 16.1968C4.69455 16.0477 4.61847 15.8455 4.61847 15.6346C4.61847 15.4238 4.69455 15.2216 4.82999 15.0725C4.96542 14.9234 5.14911 14.8397 5.34065 14.8397H11.1181Z" fill="#C66D2C"/>
</svg>
