<svg width="16" height="16" viewBox="0 0 16 16" fill="none" xmlns="http://www.w3.org/2000/svg">
<path d="M10.529 1.76384C10.7724 1.52043 11.0614 1.32735 11.3794 1.19562C11.6974 1.06389 12.0383 0.996094 12.3825 0.996094C12.7267 0.996094 13.0676 1.06389 13.3856 1.19562C13.7037 1.32735 13.9926 1.52043 14.236 1.76384C14.4794 2.00724 14.6725 2.29621 14.8042 2.61423C14.936 2.93226 15.0038 3.27311 15.0038 3.61734C15.0038 3.96157 14.936 4.30242 14.8042 4.62045C14.6725 4.93847 14.4794 5.22743 14.236 5.47084L13.457 6.24984L9.75002 2.54284L10.529 1.76384ZM9.04302 3.24984L2.65702 9.63584C2.28315 10.01 2.01654 10.4775 1.88502 10.9898L1.01502 14.3758C0.993445 14.4601 0.994218 14.5485 1.01726 14.6324C1.0403 14.7162 1.08482 14.7926 1.14642 14.854C1.20801 14.9154 1.28456 14.9597 1.36849 14.9824C1.45242 15.0052 1.54084 15.0057 1.62502 14.9838L5.01002 14.1148C5.5224 13.9835 5.99006 13.7169 6.36402 13.3428L12.75 6.95684L9.04302 3.24984Z" fill="#B7B6B3"/>
</svg>
