<svg width="15" height="17" viewBox="0 0 15 17" fill="none" xmlns="http://www.w3.org/2000/svg">
<path d="M14.25 7.125V12.6667C14.25 13.0866 14.0832 13.4893 13.7863 13.7863C13.4893 14.0832 13.0866 14.25 12.6667 14.25H1.58333C1.16341 14.25 0.76068 14.0832 0.463748 13.7863C0.166815 13.4893 0 13.0866 0 12.6667V7.125H14.25ZM10.2917 0C10.5016 0 10.703 0.0834075 10.8515 0.231874C10.9999 0.38034 11.0833 0.581704 11.0833 0.791667V1.58333H12.6667C13.0866 1.58333 13.4893 1.75015 13.7863 2.04708C14.0832 2.34401 14.25 2.74674 14.25 3.16667V5.54167H0V3.16667C0 2.74674 0.166815 2.34401 0.463748 2.04708C0.76068 1.75015 1.16341 1.58333 1.58333 1.58333H3.16667V0.791667C3.16667 0.581704 3.25007 0.38034 3.39854 0.231874C3.54701 0.0834075 3.74837 0 3.95833 0C4.1683 0 4.36966 0.0834075 4.51813 0.231874C4.66659 0.38034 4.75 0.581704 4.75 0.791667V1.58333H9.5V0.791667C9.5 0.581704 9.58341 0.38034 9.73187 0.231874C9.88034 0.0834075 10.0817 0 10.2917 0Z" fill="#D27C2C"/>
</svg>
