<svg width="15" height="17" viewBox="0 0 15 17" fill="none" xmlns="http://www.w3.org/2000/svg">
<path d="M14.25 9.65479V15.1965C14.25 15.6164 14.0832 16.0191 13.7863 16.316C13.4893 16.613 13.0866 16.7798 12.6667 16.7798H1.58333C1.16341 16.7798 0.76068 16.613 0.463748 16.316C0.166815 16.0191 0 15.6164 0 15.1965V9.65479H14.25ZM10.2917 2.52979C10.5016 2.52979 10.703 2.61319 10.8515 2.76166C10.9999 2.91013 11.0833 3.11149 11.0833 3.32145V4.11312H12.6667C13.0866 4.11312 13.4893 4.27993 13.7863 4.57687C14.0832 4.8738 14.25 5.27653 14.25 5.69645V8.07145H0V5.69645C0 5.27653 0.166815 4.8738 0.463748 4.57687C0.76068 4.27993 1.16341 4.11312 1.58333 4.11312H3.16667V3.32145C3.16667 3.11149 3.25007 2.91013 3.39854 2.76166C3.54701 2.61319 3.74837 2.52979 3.95833 2.52979C4.1683 2.52979 4.36966 2.61319 4.51813 2.76166C4.66659 2.91013 4.75 3.11149 4.75 3.32145V4.11312H9.5V3.32145C9.5 3.11149 9.58341 2.91013 9.73187 2.76166C9.88034 2.61319 10.0817 2.52979 10.2917 2.52979Z" fill="#474747" fill-opacity="0.62"/>
</svg>
