<svg width="19" height="17" viewBox="0 0 19 17" fill="none" xmlns="http://www.w3.org/2000/svg">
<g filter="url(#filter0_dd_646_9792)">
<path d="M16.625 10.0298V15.5715C16.625 15.9914 16.4582 16.3941 16.1613 16.691C15.8643 16.988 15.4616 17.1548 15.0417 17.1548H3.95833C3.53841 17.1548 3.13568 16.988 2.83875 16.691C2.54181 16.3941 2.375 15.9914 2.375 15.5715V10.0298H16.625ZM12.6667 2.90479C12.8766 2.90479 13.078 2.98819 13.2265 3.13666C13.3749 3.28513 13.4583 3.48649 13.4583 3.69645V4.48812H15.0417C15.4616 4.48812 15.8643 4.65493 16.1613 4.95187C16.4582 5.2488 16.625 5.65153 16.625 6.07145V8.44645H2.375V6.07145C2.375 5.65153 2.54181 5.2488 2.83875 4.95187C3.13568 4.65493 3.53841 4.48812 3.95833 4.48812H5.54167V3.69645C5.54167 3.48649 5.62507 3.28513 5.77354 3.13666C5.92201 2.98819 6.12337 2.90479 6.33333 2.90479C6.5433 2.90479 6.74466 2.98819 6.89313 3.13666C7.04159 3.28513 7.125 3.48649 7.125 3.69645V4.48812H11.875V3.69645C11.875 3.48649 11.9584 3.28513 12.1069 3.13666C12.2553 2.98819 12.4567 2.90479 12.6667 2.90479Z" fill="#474747" fill-opacity="0.66"/>
</g>
<defs>
<filter id="filter0_dd_646_9792" x="-1.625" y="2.90479" width="22.25" height="22.25" filterUnits="userSpaceOnUse" color-interpolation-filters="sRGB">
<feFlood flood-opacity="0" result="BackgroundImageFix"/>
<feColorMatrix in="SourceAlpha" type="matrix" values="0 0 0 0 0 0 0 0 0 0 0 0 0 0 0 0 0 0 127 0" result="hardAlpha"/>
<feOffset dy="4"/>
<feGaussianBlur stdDeviation="2"/>
<feComposite in2="hardAlpha" operator="out"/>
<feColorMatrix type="matrix" values="0 0 0 0 0 0 0 0 0 0 0 0 0 0 0 0 0 0 0.25 0"/>
<feBlend mode="normal" in2="BackgroundImageFix" result="effect1_dropShadow_646_9792"/>
<feColorMatrix in="SourceAlpha" type="matrix" values="0 0 0 0 0 0 0 0 0 0 0 0 0 0 0 0 0 0 127 0" result="hardAlpha"/>
<feOffset dy="4"/>
<feGaussianBlur stdDeviation="2"/>
<feComposite in2="hardAlpha" operator="out"/>
<feColorMatrix type="matrix" values="0 0 0 0 0 0 0 0 0 0 0 0 0 0 0 0 0 0 0.25 0"/>
<feBlend mode="normal" in2="effect1_dropShadow_646_9792" result="effect2_dropShadow_646_9792"/>
<feBlend mode="normal" in="SourceGraphic" in2="effect2_dropShadow_646_9792" result="shape"/>
</filter>
</defs>
</svg>
