<svg width="31" height="32" viewBox="0 0 31 32" fill="none" xmlns="http://www.w3.org/2000/svg">
<path fill-rule="evenodd" clip-rule="evenodd" d="M15.5 31.2C17.5355 31.2 19.551 30.799 21.4316 30.0201C23.3121 29.2411 25.0208 28.0994 26.4602 26.6601C27.8995 25.2208 29.0412 23.5121 29.8201 21.6315C30.5991 19.751 31 17.7354 31 15.7C31 13.6645 30.5991 11.6489 29.8201 9.76836C29.0412 7.88781 27.8995 6.1791 26.4602 4.7398C25.0208 3.30049 23.3121 2.15877 21.4316 1.37982C19.551 0.60087 17.5355 0.199951 15.5 0.199951C11.3891 0.199951 7.44666 1.83298 4.53984 4.7398C1.63303 7.64661 0 11.5891 0 15.7C0 19.8108 1.63303 23.7533 4.53984 26.6601C7.44666 29.5669 11.3891 31.2 15.5 31.2ZM15.1004 21.9688L23.7116 11.6355L21.0662 9.43106L13.6607 18.316L9.82872 14.4823L7.3935 16.9176L12.5602 22.0842L13.8932 23.4172L15.1004 21.9688Z" fill="#B7B6B3"/>
</svg>
