<svg width="11" height="21" viewBox="0 0 11 21" fill="none" xmlns="http://www.w3.org/2000/svg">
<path d="M5.92141 9.07162C3.46857 8.39412 2.67976 7.69365 2.67976 6.60276C2.67976 5.35111 3.77112 4.4784 5.59725 4.4784C7.52063 4.4784 8.23379 5.45446 8.29862 6.88984H10.6866C10.611 4.91475 9.47642 3.10043 7.21807 2.51479V0H3.97642V2.48034C1.88016 2.96263 0.194499 4.4095 0.194499 6.62573C0.194499 9.27832 2.25835 10.5989 5.27308 11.3682C7.97446 12.0572 8.51473 13.0677 8.51473 14.1357C8.51473 14.928 7.98526 16.1911 5.59725 16.1911C3.37132 16.1911 2.49607 15.1347 2.37721 13.7797H0C0.129666 16.2945 1.90177 17.7069 3.97642 18.1777V20.6695H7.21807V18.2007C9.32515 17.7758 11 16.4782 11 14.1242C11 10.863 8.37426 9.74912 5.92141 9.07162Z" fill="#D27C2C"/>
</svg>
