<svg width="12" height="21" viewBox="0 0 12 21" fill="none" xmlns="http://www.w3.org/2000/svg">
<path d="M6.33372 9.07162C3.89313 8.39412 3.10827 7.69365 3.10827 6.60276C3.10827 5.35111 4.19417 4.4784 6.01117 4.4784C7.92494 4.4784 8.63454 5.45446 8.69905 6.88984H11.0751C10.9999 4.91475 9.87096 3.10043 7.6239 2.51479V0H4.39845V2.48034C2.31266 2.96263 0.635421 4.4095 0.635421 6.62573C0.635421 9.27832 2.68896 10.5989 5.68863 11.3682C8.3765 12.0572 8.91408 13.0677 8.91408 14.1357C8.91408 14.928 8.38725 16.1911 6.01117 16.1911C3.79636 16.1911 2.92549 15.1347 2.80722 13.7797H0.441895C0.570913 16.2945 2.33416 17.7069 4.39845 18.1777V20.6695H7.6239V18.2007C9.72044 17.7758 11.3869 16.4782 11.3869 14.1242C11.3869 10.863 8.77431 9.74912 6.33372 9.07162Z" fill="#B7B6B3"/>
</svg>
