<svg width="25" height="30" viewBox="0 0 25 30" fill="none" xmlns="http://www.w3.org/2000/svg">
<path fill-rule="evenodd" clip-rule="evenodd" d="M11.9034 0.0137141C11.6678 0.0735893 11.6149 0.152235 11.2748 0.947369C10.9644 1.67316 10.9142 1.75674 10.7442 1.83072C10.6932 1.85294 10.5531 1.88999 10.433 1.91304C10.2366 1.95072 9.92314 2.01577 9.40364 2.12667C9.1532 2.18013 8.89806 2.20097 8.75004 2.18007C8.5359 2.14983 8.46807 2.10199 8.06086 1.69402C7.66266 1.29508 7.51196 1.17813 7.31702 1.11679C6.95123 1.00167 6.59611 1.12541 5.98373 1.58134C5.7942 1.72245 5.54007 1.90351 5.41898 1.98373C4.36018 2.68501 3.8068 3.07626 3.70249 3.19737C3.61408 3.3 3.52665 3.48681 3.50523 3.61878C3.46903 3.84197 3.52697 4.06516 3.75347 4.57493C3.95155 5.02078 3.97361 5.09838 3.97361 5.34976C3.97361 5.55424 3.97098 5.56791 3.90875 5.68875C3.84293 5.81652 3.74033 5.97707 3.45694 6.39579C3.37041 6.52363 3.23664 6.7372 3.15966 6.87037C3.08266 7.00354 2.9981 7.14141 2.97174 7.17674C2.85008 7.33971 2.66032 7.37357 1.77204 7.39077C1.1493 7.40282 1.09587 7.40657 1.01522 7.44404C0.870375 7.51129 0.789528 7.63199 0.702882 7.91027C0.631609 8.13922 0.619128 8.19774 0.326051 9.67569C-0.0149425 11.3952 -0.037034 11.5557 0.0308125 11.8204C0.0985059 12.0844 0.237031 12.1897 0.884923 12.4697C1.3288 12.6615 1.44818 12.7312 1.61278 12.895C1.8726 13.1535 1.93714 13.3419 2.08711 14.2797C2.17286 14.816 2.17726 14.8997 2.1294 15.0852C2.06747 15.3252 1.93926 15.4898 1.49981 15.8934C1.28027 16.0951 1.14846 16.2629 1.07939 16.4286C0.990541 16.6418 1.01897 16.7919 1.2264 17.2047C1.50626 17.7616 1.9371 18.4405 2.60324 19.374C2.89024 19.7762 3.09807 20.0421 3.24374 20.1933C3.3762 20.3308 3.47195 20.3718 3.66025 20.3718C3.86923 20.3718 4.01786 20.3211 4.58885 20.0551C4.91095 19.9049 5.07582 19.8617 5.28687 19.8719C5.43822 19.8792 5.46824 19.8876 5.60983 19.9624C5.9048 20.1181 6.32302 20.3877 6.58677 20.5921C6.89434 20.8305 7.10398 21.0543 7.20225 21.2492C7.2722 21.388 7.29897 21.7193 7.28478 22.2709C7.27067 22.8196 7.27488 22.8475 7.38967 22.9664C7.55103 23.1334 8.04604 23.2788 9.19993 23.4981C9.45263 23.5461 9.97869 23.6466 10.369 23.7214C11.2107 23.8827 11.3679 23.9034 11.5509 23.8771C11.9046 23.8264 12.0425 23.6669 12.2622 23.0547C12.3932 22.6894 12.5462 22.3846 12.6443 22.2931C12.9215 22.0346 13.6613 21.7893 14.4096 21.7078C14.5751 21.6897 14.6383 21.6897 14.6921 21.7077C14.9062 21.7792 15.35 22.2375 15.8277 22.8804C16.0257 23.1467 16.3432 23.5695 16.5334 23.8199C16.8499 24.2365 17.1901 24.6883 18.7793 26.803C20.1505 28.6274 20.5692 29.1693 20.713 29.3052C21.5771 30.122 22.8725 30.2304 23.8547 29.5681C24.4243 29.1839 24.8026 28.6185 24.9561 27.9216C24.9976 27.7333 25.0143 27.2079 24.9858 26.9907C24.9606 26.7993 24.8941 26.5531 24.8097 26.3381C24.6909 26.0357 24.6605 25.9927 23.2823 24.1685C23.0449 23.8542 22.6745 23.3617 22.4593 23.0741C22.244 22.7864 22.0235 22.4944 21.9692 22.4252C21.6904 22.0696 20.8583 20.9473 20.6766 20.6815C19.8937 19.5367 19.5468 18.8372 19.593 18.4962C19.6126 18.3519 19.8393 17.9231 20.1274 17.4856C20.527 16.8788 20.8278 16.6118 21.1782 16.5531C21.2446 16.542 21.5617 16.5314 21.8829 16.5296C22.3988 16.5268 22.4757 16.5223 22.5433 16.4916C22.8096 16.3708 22.9254 16.0514 23.173 14.7543C23.231 14.4507 23.3452 13.8536 23.4268 13.4274C23.5687 12.6861 23.5752 12.6404 23.5761 12.3717C23.5771 12.0979 23.5757 12.088 23.5204 11.9775C23.4156 11.768 23.2557 11.6633 22.7922 11.5005C22.4334 11.3746 22.195 11.2612 22.0414 11.1434C21.9417 11.067 21.9099 11.027 21.846 10.8978C21.6193 10.4395 21.4323 9.57332 21.4455 9.04277C21.4516 8.79736 21.456 8.77057 21.5067 8.6694C21.5934 8.49622 21.7052 8.36729 22.0228 8.07413C22.1861 7.92339 22.3519 7.75459 22.3914 7.69902C22.5559 7.4673 22.6009 7.2703 22.543 7.03502C22.4795 6.77724 22.3165 6.50674 21.6741 5.59374C21.3489 5.13141 21.1655 4.85317 21.0027 4.57493C20.6719 4.00969 20.4931 3.79577 20.2501 3.67476C19.9465 3.5235 19.7357 3.5467 19.142 3.79674C18.5917 4.02851 18.53 4.04845 18.3604 4.04922C18.1419 4.05021 18.0325 3.99876 17.4893 3.63978C16.4632 2.96157 16.3961 2.9084 16.3538 2.73973C16.3424 2.69435 16.3288 2.4175 16.3236 2.12452C16.3185 1.83153 16.3047 1.51772 16.2931 1.42717C16.2572 1.14766 16.1359 0.943785 15.9185 0.797787C15.6465 0.61512 15.3475 0.540698 14.2827 0.390671C14.0879 0.363241 13.6701 0.285196 13.3542 0.217263C12.4639 0.0258015 12.0722 -0.0291729 11.9034 0.0137141ZM11.2579 4.75289C10.3183 4.82423 9.32119 5.09893 8.51075 5.50967C7.72268 5.90907 7.10167 6.3651 6.50912 6.97949C5.98742 7.52042 5.63096 8.02778 5.29445 8.70835C4.93029 9.44483 4.71999 10.1669 4.61116 11.0545C4.57176 11.3758 4.57863 12.508 4.62194 12.8269C4.76272 13.8638 5.08356 14.7987 5.60405 15.6888C6.12721 16.5835 6.87758 17.3912 7.70369 17.9488C8.74583 18.6523 9.91291 19.056 11.1853 19.153C11.5592 19.1816 12.3307 19.1665 12.647 19.1244C14.3144 18.903 15.9601 18.0074 17.0825 16.7108C18.1304 15.5003 18.7127 14.0889 18.8408 12.4492C18.8678 12.1038 18.8528 11.4251 18.8109 11.0932C18.6707 9.98421 18.2543 8.85567 17.6459 7.93577C16.9268 6.84842 16.02 6.03369 14.8948 5.46391C14.128 5.0756 13.2474 4.83266 12.3416 4.75951C12.1152 4.74123 11.4638 4.73725 11.2579 4.75289ZM11.2388 6.98795C10.2763 7.08448 9.33656 7.4581 8.56818 8.04971C8.30824 8.24983 7.83787 8.72964 7.63496 9.00165C7.09098 9.73084 6.75665 10.5616 6.64125 11.4709C6.60101 11.788 6.61108 12.5015 6.66039 12.8269C6.92251 14.5568 8.04864 16.0196 9.64024 16.6976C10.408 17.0247 11.1092 17.158 11.9184 17.1306C12.6998 17.1041 13.3943 16.9283 14.0764 16.5843C14.4575 16.3922 14.8085 16.134 15.1541 15.7918C15.5449 15.4047 15.7046 15.0597 15.7063 14.5993C15.7079 14.1594 15.5357 13.8314 15.1464 13.5329C14.8625 13.3151 14.6119 13.2344 14.2635 13.2485C13.908 13.2629 13.6925 13.3602 13.1879 13.7343C12.7368 14.0687 12.525 14.1843 12.2104 14.2676C11.8888 14.3527 11.475 14.3646 11.1575 14.2978C10.6415 14.1892 10.1116 13.7994 9.75956 13.2694C9.30112 12.5793 9.23217 11.8708 9.55549 11.1727C9.80744 10.6287 10.2244 10.1946 10.7315 9.94863C11.0861 9.77658 11.4406 9.7148 11.8485 9.75399C12.3452 9.8017 12.6586 9.93447 13.1657 10.312C13.5877 10.6262 13.7839 10.7355 14.0494 10.8042C14.3886 10.892 14.7498 10.8206 15.0676 10.6028C15.5028 10.3046 15.7085 9.94098 15.7051 9.47575C15.7017 9.01935 15.5464 8.6707 15.1831 8.30331C14.4962 7.60883 13.6357 7.19336 12.531 7.02295C12.2409 6.97821 11.5284 6.95891 11.2388 6.98795Z" fill="#7C7A77"/>
</svg>
