<svg width="23" height="22" viewBox="0 0 23 22" fill="none" xmlns="http://www.w3.org/2000/svg">
<path d="M22.2767 7.15859C22.4205 7.53242 22.2992 7.94922 21.9892 8.21562L20.0441 9.90859C20.0935 10.2652 20.1205 10.6305 20.1205 11C20.1205 11.3695 20.0935 11.7348 20.0441 12.0914L21.9892 13.7844C22.2992 14.0508 22.4205 14.4676 22.2767 14.8414C22.0791 15.3527 21.841 15.8426 21.567 16.3152L21.3558 16.6633C21.0594 17.1359 20.7269 17.5828 20.3631 18.0039C20.098 18.3133 19.6578 18.4164 19.2625 18.2961L16.7603 17.5355C16.1584 17.9781 15.4935 18.3477 14.7838 18.627L14.2222 21.0805C14.1324 21.4715 13.8179 21.7809 13.4047 21.8453C12.7847 21.9441 12.1468 21.9957 11.4955 21.9957C10.8441 21.9957 10.2062 21.9441 9.5863 21.8453C9.17302 21.7809 8.85857 21.4715 8.76872 21.0805L8.2072 18.627C7.49744 18.3477 6.83259 17.9781 6.23064 17.5355L3.73298 18.3004C3.33767 18.4207 2.89744 18.3133 2.6324 18.0082C2.26853 17.5871 1.93611 17.1402 1.63962 16.6676L1.42849 16.3195C1.15447 15.8469 0.916381 15.357 0.718725 14.8457C0.574975 14.4719 0.696264 14.0551 1.00622 13.7887L2.95134 12.0957C2.90193 11.7348 2.87497 11.3695 2.87497 11C2.87497 10.6305 2.90193 10.2652 2.95134 9.90859L1.00622 8.21562C0.696264 7.94922 0.574975 7.53242 0.718725 7.15859C0.916381 6.64727 1.15447 6.15742 1.42849 5.68477L1.63962 5.33672C1.93611 4.86406 2.26853 4.41719 2.6324 3.99609C2.89744 3.68672 3.33767 3.58359 3.73298 3.70391L6.23513 4.46445C6.83708 4.02187 7.50193 3.65234 8.21169 3.37305L8.77322 0.919531C8.86306 0.528516 9.17751 0.219141 9.5908 0.154687C10.2107 0.0515625 10.8486 0 11.5 0C12.1513 0 12.7892 0.0515625 13.4092 0.150391C13.8224 0.214844 14.1369 0.524219 14.2267 0.915234L14.7883 3.36875C15.498 3.64805 16.1629 4.01758 16.7648 4.46016L19.267 3.69961C19.6623 3.5793 20.1025 3.68672 20.3676 3.9918C20.7314 4.41289 21.0638 4.85977 21.3603 5.33242L21.5715 5.68047C21.8455 6.15312 22.0836 6.64297 22.2812 7.1543L22.2767 7.15859ZM11.5 14.4375C12.4531 14.4375 13.3672 14.0753 14.0411 13.4307C14.7151 12.786 15.0937 11.9117 15.0937 11C15.0937 10.0883 14.7151 9.21398 14.0411 8.56932C13.3672 7.92466 12.4531 7.5625 11.5 7.5625C10.5469 7.5625 9.63277 7.92466 8.95881 8.56932C8.28485 9.21398 7.90622 10.0883 7.90622 11C7.90622 11.9117 8.28485 12.786 8.95881 13.4307C9.63277 14.0753 10.5469 14.4375 11.5 14.4375Z" fill="#D27C2C"/>
</svg>
