<svg width="23" height="22" viewBox="0 0 23 22" fill="none" xmlns="http://www.w3.org/2000/svg">
<path d="M22.3221 7.15859C22.4651 7.53242 22.3444 7.94922 22.036 8.21562L20.1006 9.90859C20.1498 10.2652 20.1766 10.6305 20.1766 11C20.1766 11.3695 20.1498 11.7348 20.1006 12.0914L22.036 13.7844C22.3444 14.0508 22.4651 14.4676 22.3221 14.8414C22.1254 15.3527 21.8885 15.8426 21.6159 16.3152L21.4058 16.6633C21.1108 17.1359 20.78 17.5828 20.418 18.0039C20.1543 18.3133 19.7162 18.4164 19.3229 18.2961L16.8332 17.5355C16.2343 17.9781 15.5728 18.3477 14.8666 18.627L14.3078 21.0805C14.2184 21.4715 13.9056 21.7809 13.4943 21.8453C12.8775 21.9441 12.2428 21.9957 11.5947 21.9957C10.9466 21.9957 10.3119 21.9441 9.69507 21.8453C9.28385 21.7809 8.97097 21.4715 8.88157 21.0805L8.32286 18.627C7.61664 18.3477 6.95512 17.9781 6.35617 17.5355L3.871 18.3004C3.47766 18.4207 3.03963 18.3133 2.77591 18.0082C2.41387 17.5871 2.0831 17.1402 1.7881 16.6676L1.57802 16.3195C1.30537 15.8469 1.06847 15.357 0.871806 14.8457C0.728774 14.4719 0.849457 14.0551 1.15787 13.7887L3.09327 12.0957C3.0441 11.7348 3.01728 11.3695 3.01728 11C3.01728 10.6305 3.0441 10.2652 3.09327 9.90859L1.15787 8.21562C0.849457 7.94922 0.728774 7.53242 0.871806 7.15859C1.06847 6.64727 1.30537 6.15742 1.57802 5.68477L1.7881 5.33672C2.0831 4.86406 2.41387 4.41719 2.77591 3.99609C3.03963 3.68672 3.47766 3.58359 3.871 3.70391L6.36064 4.46445C6.95959 4.02187 7.62111 3.65234 8.32733 3.37305L8.88605 0.919531C8.97544 0.528516 9.28832 0.219141 9.69954 0.154687C10.3164 0.0515625 10.9511 0 11.5992 0C12.2473 0 12.882 0.0515625 13.4988 0.150391C13.91 0.214844 14.2229 0.524219 14.3123 0.915234L14.871 3.36875C15.5772 3.64805 16.2388 4.01758 16.8377 4.46016L19.3274 3.69961C19.7207 3.5793 20.1587 3.68672 20.4224 3.9918C20.7845 4.41289 21.1152 4.85977 21.4102 5.33242L21.6203 5.68047C21.893 6.15312 22.1299 6.64297 22.3265 7.1543L22.3221 7.15859ZM11.5992 14.4375C12.5475 14.4375 13.4571 14.0753 14.1276 13.4307C14.7982 12.786 15.175 11.9117 15.175 11C15.175 10.0883 14.7982 9.21398 14.1276 8.56932C13.4571 7.92466 12.5475 7.5625 11.5992 7.5625C10.6508 7.5625 9.7413 7.92466 9.07071 8.56932C8.40012 9.21398 8.02339 10.0883 8.02339 11C8.02339 11.9117 8.40012 12.786 9.07071 13.4307C9.7413 14.0753 10.6508 14.4375 11.5992 14.4375Z" fill="#B7B6B3"/>
</svg>
