<svg width="20" height="20" viewBox="0 0 20 20" fill="none" xmlns="http://www.w3.org/2000/svg">
<path d="M19.7556 9.38188C19.5176 10.3548 19.0899 11.2705 18.4972 12.0761C17.9046 12.8817 17.1587 13.5611 16.303 14.0749C15.4478 14.588 14.4998 14.9253 13.5139 15.0673C12.528 15.2092 11.5239 15.153 10.5598 14.9019C10.3416 14.8419 10.1114 14.8419 9.89316 14.9019C9.67896 14.9498 9.48246 15.0572 9.32601 15.2119L5.08133 19.5019C4.91918 19.6578 4.73044 19.7831 4.52413 19.8719C4.31339 19.9604 4.08686 20.0046 3.85847 20.0019C3.63334 20.0042 3.41014 19.96 3.20276 19.8719C2.99512 19.7856 2.80595 19.66 2.64556 19.5019L0.588893 17.4319C0.428394 17.2733 0.302952 17.0825 0.220743 16.8719C0.048815 16.4454 0.048815 15.9684 0.220743 15.5419C0.302952 15.3313 0.428394 15.1405 0.588893 14.9819L4.84452 10.7019C5.00076 10.5489 5.11109 10.3548 5.16292 10.1419C5.22262 9.93288 5.22262 9.71188 5.16292 9.50188C4.8215 8.1888 4.83684 6.80771 5.20734 5.50262C5.57783 4.19752 6.28992 3.01622 7.26934 2.08188C8.24072 1.15334 9.44242 0.504052 10.7489 0.201882C12.0632 -0.114522 13.4388 -0.0626412 14.7259 0.351882C14.8494 0.388037 14.9613 0.456087 15.0506 0.549253C15.1398 0.642419 15.2031 0.75745 15.2343 0.882886C15.2655 1.00832 15.2635 1.13979 15.2284 1.26418C15.1933 1.38858 15.1264 1.50156 15.0343 1.59188L12.1309 4.52188C11.7794 4.90727 11.5811 5.4091 11.5737 5.93188C11.5619 6.16084 11.6365 6.38583 11.7827 6.56188L13.4931 8.29188C13.6219 8.38635 13.7696 8.45141 13.926 8.4825C14.0824 8.51359 14.2437 8.50996 14.3985 8.47188C14.8204 8.41367 15.215 8.22896 15.5308 7.94188L18.4343 5.01188C18.5265 4.92256 18.6392 4.85755 18.7625 4.82265C18.8857 4.78775 19.0157 4.78405 19.1407 4.81188C19.2665 4.84275 19.3821 4.90601 19.4761 4.99544C19.5702 5.08487 19.6394 5.19738 19.677 5.32188C20.0692 6.64296 20.0957 8.04631 19.7556 9.38188Z" fill="#B7B6B3"/>
</svg>
