<svg width="20" height="20" viewBox="0 0 20 20" fill="none" xmlns="http://www.w3.org/2000/svg">
<path d="M19.7559 9.38188C19.5179 10.3548 19.0901 11.2705 18.4975 12.0761C17.9048 12.8817 17.159 13.5611 16.3032 14.0749C15.4481 14.588 14.5 14.9253 13.5142 15.0673C12.5283 15.2092 11.5242 15.153 10.5601 14.9019C10.3418 14.8419 10.1116 14.8419 9.8934 14.9019C9.67921 14.9498 9.4827 15.0572 9.32625 15.2119L5.08157 19.5019C4.91943 19.6578 4.73069 19.7831 4.52437 19.8719C4.31363 19.9604 4.0871 20.0046 3.85872 20.0019C3.63358 20.0042 3.41038 19.96 3.20301 19.8719C2.99537 19.7856 2.80619 19.66 2.64581 19.5019L0.589137 17.4319C0.428638 17.2733 0.303196 17.0825 0.220987 16.8719C0.0490591 16.4454 0.0490591 15.9684 0.220987 15.5419C0.303196 15.3313 0.428638 15.1405 0.589137 14.9819L4.84476 10.7019C5.00101 10.5489 5.11133 10.3548 5.16316 10.1419C5.22286 9.93288 5.22286 9.71188 5.16316 9.50188C4.82175 8.1888 4.83709 6.80771 5.20758 5.50262C5.57808 4.19752 6.29016 3.01622 7.26958 2.08188C8.24096 1.15334 9.44267 0.504052 10.7491 0.201882C12.0635 -0.114522 13.439 -0.0626412 14.7261 0.351882C14.8497 0.388037 14.9616 0.456087 15.0508 0.549253C15.14 0.642419 15.2034 0.75745 15.2346 0.882886C15.2658 1.00832 15.2637 1.13979 15.2286 1.26418C15.1935 1.38858 15.1266 1.50156 15.0346 1.59188L12.1312 4.52188C11.7796 4.90727 11.5813 5.4091 11.574 5.93188C11.5622 6.16084 11.6368 6.38583 11.7829 6.56188L13.4933 8.29188C13.6221 8.38635 13.7698 8.45141 13.9262 8.4825C14.0826 8.51359 14.2439 8.50996 14.3988 8.47188C14.8207 8.41367 15.2153 8.22896 15.5311 7.94188L18.4345 5.01188C18.5267 4.92256 18.6395 4.85755 18.7627 4.82265C18.886 4.78775 19.0159 4.78405 19.141 4.81188C19.2667 4.84275 19.3823 4.90601 19.4764 4.99544C19.5704 5.08487 19.6397 5.19738 19.6773 5.32188C20.0694 6.64296 20.0959 8.04631 19.7559 9.38188Z" fill="#C66D2C"/>
</svg>
