<svg width="20" height="20" viewBox="0 0 20 20" fill="none" xmlns="http://www.w3.org/2000/svg">
<path d="M19.75 17.5833V2.41667C19.75 1.225 18.775 0.25 17.5833 0.25H2.41667C1.225 0.25 0.25 1.225 0.25 2.41667V17.5833C0.25 18.775 1.225 19.75 2.41667 19.75H17.5833C18.775 19.75 19.75 18.775 19.75 17.5833ZM6.64167 12.145L8.91667 14.8858L12.275 10.5633C12.4917 10.2817 12.925 10.2817 13.1417 10.5742L16.9442 15.6442C17.0045 15.7246 17.0413 15.8203 17.0503 15.9205C17.0593 16.0207 17.0403 16.1214 16.9953 16.2114C16.9503 16.3014 16.8812 16.3771 16.7956 16.4299C16.71 16.4828 16.6114 16.5108 16.5108 16.5108H3.52167C3.06667 16.5108 2.8175 15.9908 3.09917 15.6333L5.79667 12.1667C6.0025 11.885 6.41417 11.8742 6.64167 12.145Z" fill="#B7B6B3"/>
</svg>
