<svg width="20" height="20" viewBox="0 0 20 20" fill="none" xmlns="http://www.w3.org/2000/svg">
<path d="M8.42125 0.996123C8.86197 0.637081 9.42156 0.439941 10 0.439941C10.5784 0.439941 11.138 0.637081 11.5787 0.996123L18.8913 6.95241C19.1604 7.17168 19.3766 7.44441 19.5249 7.75169C19.6732 8.05898 19.75 8.39348 19.75 8.73203V18.047C19.75 18.5236 19.5525 18.9806 19.2008 19.3176C18.8492 19.6546 18.3723 19.8439 17.875 19.8439H14.875C14.3777 19.8439 13.9008 19.6546 13.5492 19.3176C13.1975 18.9806 13 18.5236 13 18.047V13.3752C13 12.995 12.8429 12.6304 12.563 12.361C12.2832 12.0916 11.9034 11.9394 11.5068 11.9377H8.4925C8.09598 11.9396 7.71637 12.0918 7.43669 12.3612C7.157 12.6306 7 12.9951 7 13.3752V18.047C7 18.283 6.9515 18.5167 6.85727 18.7347C6.76305 18.9527 6.62494 19.1508 6.45083 19.3176C6.27672 19.4845 6.07002 19.6168 5.84253 19.7071C5.61505 19.7974 5.37123 19.8439 5.125 19.8439H2.125C1.62772 19.8439 1.15081 19.6546 0.799175 19.3176C0.447544 18.9806 0.25 18.5236 0.25 18.047V8.73203C0.25002 8.39348 0.326829 8.05898 0.475108 7.75169C0.623387 7.44441 0.839592 7.17168 1.10875 6.95241L8.42125 0.996123Z" fill="#D27C2C"/>
</svg>
