<svg width="24" height="24" viewBox="0 0 24 24" fill="none" xmlns="http://www.w3.org/2000/svg">
<path fill-rule="evenodd" clip-rule="evenodd" d="M7.87493 12.0001C7.87493 12.199 7.95395 12.3898 8.0946 12.5305C8.23525 12.6711 8.42602 12.7501 8.62493 12.7501L19.5979 12.7501L17.6369 14.4301C17.5621 14.4942 17.5006 14.5724 17.4559 14.6603C17.4113 14.7481 17.3844 14.8439 17.3768 14.9421C17.3692 15.0404 17.381 15.1392 17.4116 15.2328C17.4421 15.3265 17.4908 15.4133 17.5549 15.4881C17.619 15.563 17.6972 15.6245 17.7851 15.6691C17.8729 15.7137 17.9687 15.7406 18.0669 15.7482C18.1652 15.7559 18.264 15.744 18.3577 15.7135C18.4513 15.6829 18.5381 15.6342 18.6129 15.5701L22.1129 12.5701C22.1953 12.4997 22.2614 12.4123 22.3067 12.3139C22.352 12.2155 22.3755 12.1085 22.3755 12.0001C22.3755 11.8918 22.352 11.7847 22.3067 11.6863C22.2614 11.5879 22.1953 11.5005 22.1129 11.4301L18.6129 8.43013C18.4618 8.3007 18.2654 8.23663 18.0669 8.25201C17.8685 8.26738 17.6844 8.36095 17.5549 8.51213C17.4255 8.6633 17.3614 8.85969 17.3768 9.05811C17.3922 9.25652 17.4858 9.4407 17.6369 9.57013L19.5969 11.2501L8.62493 11.2501C8.42602 11.2501 8.23525 11.3291 8.0946 11.4698C7.95395 11.6104 7.87493 11.8012 7.87493 12.0001Z" fill="#B7B6B3" fill-opacity="0.72"/>
<path d="M14.625 16C14.625 15.298 14.625 14.947 14.456 14.694C14.3832 14.5852 14.2898 14.4918 14.181 14.419C13.928 14.25 13.577 14.25 12.875 14.25H8.625C8.02826 14.25 7.45597 14.0129 7.03401 13.591C6.61205 13.169 6.375 12.5967 6.375 12C6.375 11.4033 6.61205 10.831 7.03401 10.409C7.45597 9.98705 8.02826 9.75 8.625 9.75H12.875C13.577 9.75 13.928 9.75 14.181 9.582C14.2899 9.50892 14.3833 9.41514 14.456 9.306C14.625 9.053 14.625 8.702 14.625 8C14.625 5.172 14.625 3.757 13.746 2.879C12.868 2 11.454 2 8.626 2H7.626C4.796 2 3.383 2 2.504 2.879C1.625 3.757 1.625 5.172 1.625 8L1.625 16C1.625 18.828 1.625 20.243 2.504 21.121C3.383 22 4.797 22 7.625 22H8.625C11.454 22 12.868 22 13.746 21.121C14.625 20.243 14.625 18.828 14.625 16Z" fill="#B7B6B3" fill-opacity="0.72"/>
</svg>
