<svg width="12" height="14" viewBox="0 0 12 14" fill="none" xmlns="http://www.w3.org/2000/svg">
<path d="M11.334 3.26126C11.5039 3.26145 11.6674 3.32701 11.791 3.44454C11.9145 3.56208 11.9889 3.72272 11.9989 3.89365C12.0088 4.06457 11.9536 4.23288 11.8445 4.36417C11.7355 4.49547 11.5808 4.57985 11.412 4.60007L11.334 4.60478H11.28L10.6672 11.9941C10.6673 12.5082 10.4723 13.0028 10.1223 13.3768C9.7723 13.7508 9.29367 13.9759 8.78434 14.006L8.667 14.0094H3.33301C2.26754 14.0094 1.39677 13.1704 1.33809 12.1621L1.33476 12.0499L0.71935 4.60478H0.66601C0.496069 4.60459 0.332614 4.53902 0.209042 4.42149C0.085469 4.30395 0.0111061 4.14331 0.00114683 3.97238C-0.00881247 3.80146 0.0463835 3.63316 0.155457 3.50186C0.264531 3.37056 0.419249 3.28618 0.588 3.26596L0.66601 3.26126H11.334ZM7.3335 0.574219C7.68716 0.574219 8.02634 0.715768 8.27642 0.967726C8.5265 1.21968 8.667 1.56141 8.667 1.91774C8.66681 2.08896 8.60173 2.25364 8.48507 2.37814C8.36841 2.50264 8.20897 2.57756 8.03932 2.5876C7.86967 2.59763 7.70262 2.54202 7.57231 2.43213C7.44199 2.32223 7.35824 2.16635 7.33816 1.99633L7.3335 1.91774H4.6665L4.66184 1.99633C4.64176 2.16635 4.55801 2.32223 4.42769 2.43213C4.29738 2.54202 4.13033 2.59763 3.96068 2.5876C3.79103 2.57756 3.63159 2.50264 3.51493 2.37814C3.39827 2.25364 3.33319 2.08896 3.33301 1.91774C3.3329 1.57878 3.45996 1.25232 3.68871 1.00378C3.91747 0.755238 4.23101 0.602999 4.56649 0.577578L4.6665 0.574219H7.3335Z" fill="#C66D2C"/>
</svg>
