<svg width="173" height="65" viewBox="0 0 173 65" fill="none" xmlns="http://www.w3.org/2000/svg">
<path fill-rule="evenodd" clip-rule="evenodd" d="M93.7755 0.0297139C93.2603 0.159444 93.1446 0.329842 92.401 2.05263C91.7223 3.62517 91.6125 3.80627 91.2409 3.96656C91.1293 4.0147 90.8231 4.09498 90.5604 4.14493C90.131 4.22656 89.4456 4.3675 88.3098 4.60778C87.7622 4.72361 87.2043 4.76877 86.8806 4.72349C86.4124 4.65797 86.2641 4.55431 85.3737 3.67037C84.5031 2.806 84.1736 2.55262 83.7473 2.4197C82.9475 2.17028 82.171 2.43838 80.8321 3.42623C80.4177 3.73198 79.862 4.12428 79.5972 4.29808C77.2821 5.81752 76.0722 6.66524 75.8441 6.92763C75.6508 7.14999 75.4596 7.55475 75.4128 7.84069C75.3336 8.32427 75.4603 8.80785 75.9556 9.91234C76.3887 10.8784 76.4369 11.0465 76.4369 11.5911C76.4369 12.0342 76.4312 12.0638 76.2951 12.3256C76.1512 12.6025 75.9268 12.9503 75.3072 13.8575C75.118 14.1345 74.8255 14.5973 74.6572 14.8858C74.4888 15.1743 74.3039 15.473 74.2463 15.5496C73.9803 15.9027 73.5654 15.9761 71.6231 16.0133C70.2615 16.0394 70.1447 16.0476 69.9683 16.1287C69.6516 16.2745 69.4749 16.536 69.2854 17.1389C69.1296 17.635 69.1023 17.7618 68.4615 20.964C67.7159 24.6896 67.6676 25.0374 67.8159 25.6109C67.9639 26.1829 68.2668 26.4111 69.6834 27.0177C70.654 27.4332 70.915 27.5843 71.2749 27.9391C71.843 28.4992 71.9841 28.9074 72.312 30.9394C72.4995 32.1013 72.5092 32.2826 72.4045 32.6845C72.2691 33.2046 71.9888 33.5612 71.0279 34.4357C70.5479 34.8727 70.2597 35.2362 70.1086 35.5953C69.9144 36.0572 69.9765 36.3825 70.4301 37.2769C71.042 38.4835 71.984 39.9543 73.4406 41.977C74.0681 42.8485 74.5225 43.4245 74.841 43.7522C75.1306 44.0501 75.34 44.139 75.7517 44.139C76.2087 44.139 76.5337 44.0291 77.7821 43.4526C78.4864 43.1274 78.8469 43.0336 79.3084 43.0557C79.6393 43.0716 79.7049 43.0899 80.0145 43.2518C80.6595 43.5893 81.5739 44.1734 82.1506 44.6163C82.8231 45.1328 83.2815 45.6177 83.4964 46.04C83.6493 46.3406 83.7078 47.0585 83.6768 48.2537C83.646 49.4424 83.6552 49.5029 83.9062 49.7604C84.259 50.1223 85.3413 50.4374 87.8643 50.9125C88.4169 51.0166 89.5671 51.2343 90.4204 51.3963C92.2608 51.7458 92.6045 51.7907 93.0048 51.7338C93.7781 51.6238 94.0797 51.2782 94.56 49.9519C94.8465 49.1604 95.181 48.4999 95.3956 48.3016C96.0016 47.7415 97.6191 47.2101 99.2554 47.0335C99.6171 46.9944 99.7554 46.9944 99.8731 47.0334C100.341 47.1883 101.312 48.1812 102.356 49.5741C102.789 50.1512 103.483 51.0672 103.899 51.6097C104.591 52.5125 105.335 53.4913 108.81 58.0731C111.808 62.0261 112.723 63.2001 113.038 63.4945C114.927 65.2643 117.76 65.4991 119.907 64.0641C121.153 63.2319 121.98 62.0068 122.315 60.4968C122.406 60.0888 122.443 58.9505 122.38 58.4799C122.325 58.0652 122.18 57.5316 121.995 57.0658C121.735 56.4108 121.669 56.3174 118.656 52.3651C118.137 51.6842 117.327 50.6171 116.856 49.9938C116.386 49.3706 115.903 48.7379 115.785 48.5878C115.175 47.8175 113.356 45.3857 112.958 44.8098C111.246 42.3296 110.488 40.8139 110.589 40.0751C110.632 39.7624 111.128 38.8333 111.757 37.8854C112.631 36.5707 113.289 35.9923 114.055 35.8651C114.2 35.841 114.894 35.8181 115.596 35.8142C116.724 35.808 116.892 35.7984 117.04 35.7319C117.622 35.47 117.875 34.7781 118.417 31.9677C118.544 31.3098 118.793 30.016 118.972 29.0927C119.282 27.4866 119.296 27.3875 119.298 26.8053C119.3 26.2121 119.297 26.1906 119.176 25.9511C118.947 25.4973 118.597 25.2704 117.584 24.9178C116.8 24.645 116.278 24.3992 115.942 24.144C115.724 23.9784 115.655 23.8918 115.515 23.6118C115.02 22.619 114.611 20.7422 114.64 19.5927C114.653 19.061 114.663 19.0029 114.773 18.7837C114.963 18.4085 115.207 18.1291 115.902 17.494C116.259 17.1673 116.621 16.8016 116.708 16.6812C117.067 16.1792 117.166 15.7523 117.039 15.2425C116.9 14.684 116.544 14.0979 115.139 12.1198C114.428 11.1181 114.027 10.5152 113.671 9.91234C112.948 8.68765 112.557 8.22418 112.026 7.96199C111.362 7.63424 110.901 7.68452 109.603 8.22627C108.399 8.72845 108.265 8.77163 107.894 8.77331C107.416 8.77545 107.177 8.66398 105.989 7.88619C103.746 6.41673 103.599 6.30152 103.506 5.93609C103.481 5.83775 103.452 5.23792 103.44 4.60312C103.429 3.96832 103.399 3.2884 103.374 3.09219C103.295 2.4866 103.03 2.04487 102.555 1.72854C101.96 1.33276 101.306 1.17151 98.9778 0.846453C98.5519 0.787023 97.6384 0.617925 96.9477 0.470736C95.0011 0.0559033 94.1445 -0.063208 93.7755 0.0297139ZM168.756 7.96589C167.523 8.06863 166.475 8.97452 166.16 10.2109C166.079 10.5275 166.077 10.7116 166.078 18.8692C166.079 28.1892 166.056 27.4981 166.388 28.1694C166.917 29.2378 167.852 29.8248 169.028 29.8262C170.421 29.8278 171.597 28.9211 171.968 27.5608C172.038 27.3036 172.042 26.8052 172.042 18.873C172.042 10.8624 172.039 10.445 171.966 10.1888C171.824 9.68663 171.468 9.07978 171.137 8.77596C170.457 8.15266 169.682 7.88879 168.756 7.96589ZM92.3641 10.2979C90.3097 10.4525 88.1295 11.0477 86.3574 11.9376C84.6343 12.803 83.2764 13.7911 81.9808 15.1222C80.8401 16.2942 80.0607 17.3935 79.3249 18.8681C78.5287 20.4638 78.0689 22.0283 77.8309 23.9514C77.7448 24.6476 77.7598 27.1007 77.8545 27.7916C78.1623 30.0382 78.8638 32.0638 80.0019 33.9924C81.1458 35.9309 82.7865 37.6809 84.5928 38.8891C86.8714 40.4134 89.4233 41.288 92.2053 41.4983C93.0228 41.5601 94.7098 41.5274 95.4015 41.4363C99.0472 40.9564 102.646 39.0161 105.1 36.2066C107.391 33.5839 108.664 30.5259 108.944 26.9732C109.003 26.2249 108.971 24.7544 108.879 24.0353C108.572 21.6325 107.662 19.1873 106.332 17.1942C104.759 14.8383 102.777 13.073 100.316 11.8385C98.6397 10.9971 96.7142 10.4708 94.7336 10.3123C94.2386 10.2727 92.8144 10.2641 92.3641 10.2979ZM92.3223 15.1406C90.2179 15.3497 88.1631 16.1592 86.483 17.441C85.9146 17.8746 84.8862 18.9142 84.4425 19.5036C83.2531 21.0835 82.5221 22.8835 82.2697 24.8537C82.1817 25.5407 82.2038 27.0865 82.3116 27.7916C82.8847 31.5397 85.347 34.7091 88.8271 36.1782C90.5059 36.8869 92.039 37.1756 93.8083 37.1163C95.5168 37.0589 97.0354 36.678 98.5268 35.9327C99.3601 35.5164 100.128 34.957 100.883 34.2155C101.738 33.3769 102.087 32.6294 102.091 31.6319C102.094 30.6787 101.718 29.9681 100.866 29.3212C100.246 28.8494 99.6977 28.6745 98.936 28.7051C98.1585 28.7362 97.6874 28.9471 96.5841 29.7576C95.5977 30.4822 95.1347 30.7326 94.4469 30.913C93.7435 31.0976 92.8389 31.1233 92.1447 30.9785C91.0163 30.7433 89.8576 29.8987 89.088 28.7505C88.0856 27.2552 87.9348 25.7201 88.6418 24.2075C89.1927 23.0288 90.1044 22.0884 91.213 21.5554C91.9884 21.1826 92.7636 21.0487 93.6556 21.1336C94.7415 21.237 95.4267 21.5247 96.5355 22.3428C97.4583 23.0235 97.8872 23.2602 98.4679 23.4091C99.2095 23.5993 99.9991 23.4446 100.694 22.9728C101.646 22.3267 102.095 21.5388 102.088 20.5308C102.08 19.5419 101.741 18.7865 100.947 17.9905C99.4448 16.4858 97.5631 15.5856 95.1478 15.2164C94.5135 15.1195 92.9556 15.0776 92.3223 15.1406ZM132.831 15.767C130.54 15.9458 128.407 16.809 126.695 18.2498C125.354 19.3778 124.471 20.5163 123.691 22.1257C122.725 24.1162 122.421 26.3282 122.8 28.61C123.117 30.5176 124.124 32.578 125.467 34.0662C126.969 35.7317 128.887 36.9083 130.973 37.4439C131.83 37.6641 132.3 37.7242 133.344 37.7473C134.406 37.7707 134.884 37.7234 135.768 37.507C136.612 37.3002 137.724 36.8264 138.565 36.3155C138.777 36.1864 138.967 36.0807 138.987 36.0807C139.006 36.0807 139.082 36.1726 139.154 36.2848C139.36 36.603 139.814 37.0049 140.167 37.1823C140.619 37.4088 140.942 37.4824 141.485 37.4824C142.013 37.4824 142.333 37.412 142.791 37.1952C143.566 36.8281 144.111 36.217 144.41 35.3782L144.541 35.0105V30.3728C144.541 26.1006 144.535 25.6971 144.465 25.2524C144.266 23.9851 143.987 23.0672 143.476 21.9977C141.851 18.5963 138.574 16.2415 134.872 15.8141C134.312 15.7495 133.341 15.7271 132.831 15.767ZM158.836 16.0644C156.21 16.3221 153.778 17.4844 151.863 19.3963C149.979 21.2766 148.907 23.4114 148.509 26.0708C148.441 26.5302 148.434 26.9476 148.434 30.8135V35.0525L148.548 35.3891C148.763 36.0263 149.146 36.5407 149.68 36.9109C150.868 37.7341 152.333 37.6769 153.401 36.7656C153.803 36.4225 154.038 36.0729 154.258 35.4931L154.377 35.1784L154.403 31.0443C154.42 28.46 154.446 26.8316 154.473 26.7004C154.732 25.4495 155.178 24.567 155.967 23.7474C156.431 23.265 156.908 22.9148 157.492 22.6273C158.32 22.219 158.842 22.0912 159.95 22.025C160.495 21.9925 160.687 21.9635 160.954 21.8737C161.909 21.5527 162.63 20.8445 162.939 19.9222C163.006 19.7219 163.036 19.5101 163.051 19.1248C163.077 18.4677 163.009 18.1158 162.752 17.5833C162.408 16.8683 161.789 16.3624 160.992 16.1436C160.722 16.0696 160.518 16.0491 159.945 16.0385C159.554 16.0313 159.055 16.0429 158.836 16.0644ZM132.777 21.8302C131.661 22.0334 130.584 22.6567 129.861 23.5184C129.321 24.1611 128.922 24.969 128.756 25.7561C128.665 26.1863 128.653 27.2289 128.735 27.6447C129.236 30.1972 131.542 31.9547 134.073 31.7142C135.876 31.5429 137.324 30.5053 138.111 28.8197C139.007 26.9005 138.557 24.6018 136.992 23.1026C136.316 22.4549 135.403 21.9917 134.484 21.8311C134.055 21.7561 133.186 21.7557 132.777 21.8302ZM168.412 31.3399C167.746 31.5041 167.106 31.9299 166.671 32.4982C166.478 32.751 166.259 33.238 166.157 33.6432C166.033 34.1358 166.058 34.859 166.217 35.3471C166.589 36.4933 167.562 37.3001 168.778 37.4706C170.259 37.6783 171.766 36.6296 172.15 35.1249C172.249 34.7373 172.257 34.0769 172.167 33.6955C171.897 32.5488 170.901 31.5554 169.781 31.3176C169.383 31.233 168.808 31.2424 168.412 31.3399Z" fill="#3B563C"/>
<path fill-rule="evenodd" clip-rule="evenodd" d="M2.30297 8.41657C1.40787 8.65425 0.718995 9.20255 0.337913 9.98059C-0.0319934 10.7358 0.000740143 9.79773 0.000740143 19.6451C0.000740143 29.1954 -0.0136174 28.5784 0.234814 29.7179C0.665081 31.6916 1.75019 33.6597 3.22127 35.1347C5.70752 37.6276 9.12139 38.7654 12.5901 38.2573C13.7553 38.0866 14.6731 37.798 15.7815 37.2539C19.0951 35.627 21.4004 32.3828 21.8518 28.7112C21.9282 28.0899 21.9393 26.768 21.8732 26.1715C21.7306 24.8839 21.3957 23.7438 20.8069 22.541C18.6037 18.0408 13.7524 15.6073 8.89573 16.5664C8.05718 16.7319 6.90899 17.1125 6.26612 17.4378C6.07679 17.5337 6.00032 17.5551 5.98609 17.5162C5.97529 17.4867 5.96126 15.9612 5.95486 14.126C5.9418 10.3814 5.96126 10.6254 5.62058 9.92901C5.3672 9.4111 4.88189 8.93146 4.33312 8.65664C4.11274 8.54626 3.80487 8.4303 3.64245 8.39655C3.23869 8.31257 2.66216 8.32117 2.30297 8.41657ZM55.4675 16.3974C53.8789 16.5196 52.3984 17.0172 51.194 17.8339C50.6869 18.1778 49.9217 18.9483 49.5898 19.4493C48.791 20.6551 48.4186 22.1203 48.5376 23.5894C48.6119 24.5072 48.8335 25.17 49.313 25.9087C50.1053 27.1293 51.1186 27.9301 53.0568 28.8677C54.3675 29.5018 54.6861 29.6387 55.5286 29.9293C57.5383 30.6228 58.3991 31.0891 58.4814 31.5291C58.5853 32.0839 57.8386 32.5236 56.6985 32.5792C55.4547 32.6398 54.1625 32.1308 53.0568 31.1448C52.2182 30.397 51.3431 30.0307 50.3778 30.0236C49.8464 30.0196 49.5284 30.0931 49.0419 30.3322C48.4049 30.6453 47.9205 31.2546 47.7581 31.9471C47.6561 32.3818 47.6955 33.1777 47.8404 33.6109C48.4475 35.4258 50.0626 36.8865 52.3308 37.6721C53.6721 38.1366 55.0423 38.3596 56.552 38.3591C57.7621 38.3587 58.4992 38.2499 59.5282 37.9197C61.9826 37.1323 63.8089 35.2593 64.3432 32.9816C64.4279 32.6205 64.4537 32.3784 64.4717 31.7745C64.5151 30.324 64.2614 29.328 63.5816 28.2809C62.7803 27.0464 61.6638 26.1577 59.9635 25.4007C58.9544 24.9515 57.9773 24.6235 56.1352 24.1155C55.4659 23.931 54.8658 23.676 54.6793 23.4968C54.46 23.2861 54.4758 22.9116 54.7152 22.6459C55.0069 22.3222 55.4514 22.1999 56.4892 22.158C57.564 22.1145 57.9909 22.1942 59.2409 22.6715C60.3843 23.1081 60.5889 23.1654 61.0099 23.1667C61.464 23.1681 61.7339 23.1021 62.2029 22.8755C62.6517 22.6585 62.9387 22.4151 63.2028 22.0276C63.9566 20.9215 63.7977 19.3617 62.8256 18.3257C62.2831 17.7475 61.5475 17.3232 60.4625 16.9627C59.0015 16.4774 57.1511 16.2679 55.4675 16.3974ZM27.1252 16.6687C26.3501 16.855 25.9814 17.0503 25.5129 17.5228C25.1198 17.9192 24.9194 18.2522 24.7536 18.7847L24.6556 19.0995V23.8631C24.6556 28.158 24.6626 28.6732 24.7276 29.0988C25.1052 31.5737 26.1373 33.6153 27.8636 35.3017C29.8216 37.2145 32.2431 38.259 34.9738 38.3688C37.1052 38.4544 39.1151 37.9008 40.839 36.7532C41.9996 35.9806 42.8538 35.1274 43.6175 33.9779C44.669 32.3953 45.2806 30.6856 45.4793 28.7736C45.5039 28.5368 45.521 26.5076 45.5215 23.7754C45.5221 19.3365 45.5193 19.1646 45.4398 18.8528C45.2306 18.0327 44.6656 17.3252 43.9315 16.964C43.4687 16.7362 43.0889 16.6459 42.5921 16.6452C41.3498 16.6437 40.2006 17.4286 39.7366 18.5954C39.543 19.0824 39.5394 19.1763 39.5378 23.7803C39.5363 28.2036 39.5268 28.5115 39.3721 29.118C38.893 30.9961 37.5833 32.1695 35.7755 32.3405C34.8162 32.4312 33.9658 32.2631 33.0901 31.8098C31.6804 31.0799 30.8304 29.8085 30.6637 28.1805C30.6369 27.9187 30.6204 26.1226 30.6204 23.4687C30.6204 19.769 30.6117 19.1457 30.5568 18.9299C30.2992 17.9172 29.561 17.1298 28.5484 16.7878C28.274 16.6951 28.123 16.6723 27.7113 16.6616C27.435 16.6545 27.1713 16.6577 27.1252 16.6687ZM9.96313 22.4769C7.95299 22.9138 6.39877 24.5295 6.04578 26.5492C5.96884 26.9893 5.97834 27.8332 6.06524 28.2831C6.32682 29.6367 7.17705 30.8698 8.36496 31.6184C10.5026 32.9655 13.3889 32.4342 14.9052 30.4146C16.9173 27.7347 15.836 23.8673 12.7482 22.6999C12.1551 22.4756 11.8885 22.4292 11.0933 22.4117C10.4596 22.3977 10.28 22.4081 9.96313 22.4769Z" fill="#474747"/>
</svg>
