<svg width="20" height="20" viewBox="0 0 20 20" fill="none" xmlns="http://www.w3.org/2000/svg">
<path d="M8.41997 0.996123C8.85848 0.637081 9.41527 0.439941 9.99083 0.439941C10.5664 0.439941 11.1232 0.637081 11.5617 0.996123L18.8376 6.95241C19.1055 7.17168 19.3206 7.44441 19.4681 7.75169C19.6157 8.05898 19.6921 8.39348 19.6921 8.73203V18.047C19.6921 18.5236 19.4955 18.9806 19.1457 19.3176C18.7958 19.6546 18.3213 19.8439 17.8265 19.8439H14.8415C14.3467 19.8439 13.8721 19.6546 13.5223 19.3176C13.1724 18.9806 12.9758 18.5236 12.9758 18.047V13.3752C12.9758 12.995 12.8195 12.6304 12.5411 12.361C12.2626 12.0916 11.8847 11.9394 11.49 11.9377H8.49086C8.09632 11.9396 7.71861 12.0918 7.44032 12.3612C7.16203 12.6306 7.00581 12.9951 7.00582 13.3752V18.047C7.00582 18.283 6.95756 18.5167 6.86381 18.7347C6.77005 18.9527 6.63263 19.1508 6.45939 19.3176C6.28615 19.4845 6.08048 19.6168 5.85413 19.7071C5.62779 19.7974 5.38519 19.8439 5.14019 19.8439H2.15518C1.66038 19.8439 1.18585 19.6546 0.835981 19.3176C0.486108 18.9806 0.289551 18.5236 0.289551 18.047V8.73203C0.28957 8.39348 0.365996 8.05898 0.513534 7.75169C0.661072 7.44441 0.876197 7.17168 1.14401 6.95241L8.41997 0.996123Z" fill="#B7B6B3"/>
</svg>
