<svg width="25" height="19" viewBox="0 0 25 19" fill="none" xmlns="http://www.w3.org/2000/svg">
<path d="M18.3265 13.9519C17.6698 13.9519 17.1325 13.4287 17.1325 12.7893H7.58052C7.58052 13.4287 7.04322 13.9519 6.38652 13.9519C5.72982 13.9519 5.19252 13.4287 5.19252 12.7893H0.416504V16.2772C0.416504 17.5562 1.49111 18.6026 2.80451 18.6026H21.9086C23.222 18.6026 24.2966 17.5562 24.2966 16.2772V12.7893H19.5206C19.5206 13.4287 18.9832 13.9519 18.3265 13.9519ZM21.9086 4.65064H18.3265V2.32532C18.3265 1.04639 17.2519 0 15.9385 0H8.77452C7.46112 0 6.38652 1.04639 6.38652 2.32532V4.65064H2.80451C1.49111 4.65064 0.416504 5.69704 0.416504 6.97596V11.6266H5.19252V10.4639C5.19252 9.82448 5.72982 9.30128 6.38652 9.30128C7.04322 9.30128 7.58052 9.82448 7.58052 10.4639V11.6266H17.1325V10.4639C17.1325 9.82448 17.6698 9.30128 18.3265 9.30128C18.9832 9.30128 19.5206 9.82448 19.5206 10.4639V11.6266H24.2966V6.97596C24.2966 5.69704 23.222 4.65064 21.9086 4.65064ZM15.9385 4.65064H8.77452V2.32532H15.9385V4.65064Z" fill="#C66D2C"/>
</svg>
