<svg width="19" height="21" viewBox="0 0 19 21" fill="none" xmlns="http://www.w3.org/2000/svg">
<path d="M15.8197 12.1431C16.5224 12.1431 17.1963 12.4027 17.6931 12.8648C18.19 13.327 18.4691 13.9538 18.4691 14.6074V15.1947C18.4691 18.1329 14.7512 20.3574 9.63787 20.3574C4.52459 20.3574 0.806641 18.2487 0.806641 15.1947V14.6074C0.806641 13.9538 1.08577 13.327 1.58262 12.8648C2.07948 12.4027 2.75335 12.1431 3.45601 12.1431H15.8197ZM9.63787 0.643066C10.3337 0.643066 11.0227 0.770548 11.6656 1.01823C12.3085 1.26592 12.8926 1.62895 13.3847 2.08661C13.8767 2.54427 14.267 3.08759 14.5333 3.68555C14.7996 4.28352 14.9366 4.92441 14.9366 5.57164C14.9366 6.21887 14.7996 6.85976 14.5333 7.45772C14.267 8.05568 13.8767 8.599 13.3847 9.05666C12.8926 9.51432 12.3085 9.87736 11.6656 10.125C11.0227 10.3727 10.3337 10.5002 9.63787 10.5002C8.23256 10.5002 6.88481 9.98095 5.8911 9.05666C4.89739 8.13238 4.33913 6.87878 4.33913 5.57164C4.33913 4.2645 4.89739 3.0109 5.8911 2.08661C6.88481 1.16233 8.23256 0.643066 9.63787 0.643066Z" fill="#C66D2C"/>
</svg>
