<svg width="1085" height="794" viewBox="0 0 1085 794" fill="none" xmlns="http://www.w3.org/2000/svg">
<path fill-rule="evenodd" clip-rule="evenodd" d="M1483.62 1317.91L792.647 288.085C741.261 211.5 637.083 193.818 559.96 248.593C482.838 303.368 461.974 409.856 513.36 486.442L1204.33 1516.26C1255.72 1592.85 1359.9 1610.53 1437.02 1555.76C1514.14 1500.98 1535.01 1394.49 1483.62 1317.91ZM535.918 212.76C438.867 281.689 412.612 415.694 477.277 512.07L1168.25 1541.89C1232.91 1638.27 1364.01 1660.52 1461.06 1591.59C1558.11 1522.66 1584.37 1388.66 1519.7 1292.28L828.731 262.458C764.066 166.082 632.969 143.832 535.918 212.76Z" fill="#253F54"/>
<path fill-rule="evenodd" clip-rule="evenodd" d="M1439.76 1346.97L750.684 319.981C715.338 267.302 643.688 255.135 590.648 292.806C537.608 330.476 523.264 403.719 558.61 456.397L1247.68 1483.39C1283.03 1536.06 1354.68 1548.23 1407.72 1510.56C1460.76 1472.89 1475.1 1399.65 1439.76 1346.97ZM566.588 256.947C493.609 308.779 473.873 409.557 522.506 482.04L1211.58 1509.03C1260.21 1581.51 1358.8 1598.25 1431.78 1546.42C1504.76 1494.59 1524.49 1393.81 1475.86 1321.33L786.788 294.339C738.155 221.856 639.568 205.115 566.588 256.947Z" fill="#3B546C"/>
<path fill-rule="evenodd" clip-rule="evenodd" d="M1393.3 1377.72L706.728 354.454C687.875 326.355 649.782 319.777 621.644 339.761C593.507 359.745 585.98 398.724 604.833 426.822L1291.41 1450.09C1310.26 1478.19 1348.36 1484.77 1376.49 1464.78C1404.63 1444.8 1412.16 1405.82 1393.3 1377.72ZM597.604 303.932C549.652 337.99 536.825 404.418 568.955 452.304L1255.53 1475.57C1287.66 1523.46 1352.58 1534.67 1400.53 1500.61C1448.49 1466.56 1461.31 1400.13 1429.18 1352.24L742.606 328.972C710.477 281.086 645.557 269.875 597.604 303.932Z" fill="#C66D2C"/>
</svg>
