<svg width="160" height="67" viewBox="0 0 160 67" fill="none" xmlns="http://www.w3.org/2000/svg">
<path d="M55 23.6815C55 26.5796 54.0889 29.0318 52.2668 31.0382C50.4447 33.0127 48.1964 34 45.522 34C42.8183 34 40.5553 33.0127 38.7332 31.0382C36.9111 29.0637 36 26.6115 36 23.6815V7.24841C36 6.29299 36.2645 5.51274 36.7935 4.90764C37.3519 4.30255 38.0719 4 38.9536 4C39.8353 4 40.5553 4.30255 41.1137 4.90764C41.6721 5.51274 41.9513 6.29299 41.9513 7.24841V9.78025H52.0464C52.9281 9.78025 53.6334 10.0828 54.1624 10.6879C54.7208 11.2611 55 12.0255 55 12.9809C55 15.1465 54.0155 16.2293 52.0464 16.2293H41.9513V23.6815C41.9513 24.7643 42.2893 25.6879 42.9652 26.4522C43.6705 27.1847 44.5228 27.551 45.522 27.551C46.5213 27.551 47.3589 27.1847 48.0348 26.4522C48.7108 25.6879 49.0487 24.7643 49.0487 23.6815V23.2516C49.0487 22.328 49.3279 21.5637 49.8863 20.9586C50.4741 20.3535 51.1941 20.051 52.0464 20.051C52.8987 20.051 53.604 20.3535 54.1624 20.9586C54.7208 21.5637 55 22.328 55 23.2516V23.6815Z" fill="#474747"/>
<path d="M32.3675 30.8492C32.3675 31.7898 32.1004 32.5579 31.5663 33.1535C31.0321 33.7178 30.3434 34 29.5 34C28.6566 34 27.9679 33.7178 27.4337 33.1535C26.9277 32.5579 26.6747 31.7898 26.6747 30.8492V13.2144C26.6747 12.2739 26.9277 11.5214 27.4337 10.9571C27.9679 10.3615 28.6566 10.0636 29.5 10.0636C31.4116 10.0636 32.3675 11.1139 32.3675 13.2144V30.8492ZM29.5 0C28.5442 0 27.7149 0.391886 27.012 1.17566C26.3373 1.92808 26 2.83725 26 3.90318C26 4.96911 26.3373 5.89396 27.012 6.67773C27.7149 7.43015 28.5442 7.80636 29.5 7.80636C30.4558 7.80636 31.2711 7.43015 31.9458 6.67773C32.6486 5.89396 33 4.96911 33 3.90318C33 2.83725 32.6486 1.92808 31.9458 1.17566C31.2711 0.391886 30.4558 0 29.5 0Z" fill="#474747"/>
<path d="M11.4775 27.3782C12.9778 27.3782 14.2531 26.8389 15.3033 25.7605C16.3836 24.6513 16.9237 23.3263 16.9237 21.7857C16.9237 20.2451 16.3836 18.9356 15.3033 17.8571C14.2531 16.7787 12.9778 16.2395 11.4775 16.2395C9.97717 16.2395 8.70189 16.7787 7.65166 17.8571C6.60144 18.9356 6.07632 20.2451 6.07632 21.7857V39.8571C6.07632 40.7815 5.79126 41.5364 5.22114 42.1218C4.65101 42.7073 3.91585 43 3.01566 43C2.11546 43 1.3803 42.7073 0.810176 42.1218C0.270059 41.5364 0 40.7815 0 39.8571V21.7857C0 18.458 1.09524 15.6695 3.28571 13.4202C5.5062 11.1401 8.23679 10 11.4775 10C14.7182 10 17.4488 11.1401 19.6693 13.4202C21.8898 15.6695 23 18.458 23 21.7857C23 25.1134 21.8898 27.9174 19.6693 30.1975C17.4488 32.4776 14.7182 33.6176 11.4775 33.6176C10.5773 33.6176 9.84214 33.3249 9.27202 32.7395C8.7319 32.1541 8.46184 31.3992 8.46184 30.4748C8.46184 29.5504 8.7319 28.8109 9.27202 28.2563C9.84214 27.6709 10.5773 27.3782 11.4775 27.3782Z" fill="#474747"/>
<rect width="10.5089" height="9.296" transform="matrix(0.999996 0.00277286 -0.00313425 0.999995 63.4756 48.3745)" fill="#474747"/>
<rect width="10.5089" height="9.296" transform="matrix(-0.999996 -0.00277286 0.00313425 -0.999995 63.4194 66.9661)" fill="#474747"/>
<rect width="10.5089" height="9.296" transform="matrix(0.999996 0.00277286 -0.00313425 0.999995 42.3267 48.3159)" fill="#474747"/>
<rect width="10.5089" height="9.296" transform="matrix(-0.999996 -0.00277286 0.00313425 -0.999995 42.2715 66.907)" fill="#474747"/>
<rect width="10.5089" height="9.296" transform="matrix(0.999996 0.00277286 -0.00313425 0.999995 21.1787 48.2568)" fill="#474747"/>
<rect width="10.5089" height="9.296" transform="matrix(-0.999996 -0.00277286 0.00313425 -0.999995 21.1211 66.8484)" fill="#474747"/>
<rect width="10.5089" height="9.296" transform="matrix(0.999996 0.00285768 -0.00303983 0.999995 0.0283203 48.1985)" fill="#474747"/>
<rect width="10.5089" height="9.296" transform="matrix(-0.999996 -0.00277286 0.00313425 -0.999995 84.626 66.8198)" fill="#474747"/>
<rect width="10.5089" height="9.296" transform="matrix(0.999996 0.00277286 -0.00313425 0.999995 84.6807 48.2283)" fill="#474747"/>
<rect width="10.5089" height="9.296" transform="matrix(-0.999996 -0.00277286 0.00313425 -0.999995 105.775 66.8782)" fill="#474747"/>
<rect width="10.5089" height="9.296" transform="matrix(0.999996 0.00277286 -0.00313425 0.999995 105.83 48.2869)" fill="#474747"/>
<rect width="10.5089" height="9.296" transform="matrix(-0.999996 -0.00277286 0.00313425 -0.999995 126.926 66.937)" fill="#474747"/>
<rect width="10.5089" height="9.296" transform="matrix(0.999996 0.00277286 -0.00313425 0.999995 126.981 48.3455)" fill="#474747"/>
<rect width="10.5089" height="9.296" transform="matrix(0.999996 0.00277286 -0.00313425 0.999995 148.132 48.1985)" fill="#474747"/>
<rect width="10.5089" height="9.296" transform="matrix(-0.999996 -0.00285768 0.00303983 -0.999995 148.075 66.9949)" fill="#474747"/>
<path d="M97 23.6815C97 26.5796 96.0889 29.0318 94.2668 31.0382C92.4447 33.0127 90.1964 34 87.522 34C84.8183 34 82.5553 33.0127 80.7332 31.0382C78.9111 29.0637 78 26.6115 78 23.6815V7.24841C78 6.29299 78.2645 5.51274 78.7935 4.90764C79.3519 4.30255 80.0719 4 80.9536 4C81.8353 4 82.5553 4.30255 83.1137 4.90764C83.6721 5.51274 83.9513 6.29299 83.9513 7.24841V9.78025H94.0464C94.9281 9.78025 95.6334 10.0828 96.1624 10.6879C96.7208 11.2611 97 12.0255 97 12.9809C97 15.1465 96.0155 16.2293 94.0464 16.2293H83.9513V23.6815C83.9513 24.7643 84.2893 25.6879 84.9652 26.4522C85.6705 27.1847 86.5228 27.551 87.522 27.551C88.5213 27.551 89.3589 27.1847 90.0348 26.4522C90.7107 25.6879 91.0487 24.7643 91.0487 23.6815V23.2516C91.0487 22.328 91.3279 21.5637 91.8863 20.9586C92.4741 20.3535 93.1941 20.051 94.0464 20.051C94.8987 20.051 95.604 20.3535 96.1624 20.9586C96.7208 21.5637 97 22.328 97 23.2516V23.6815Z" fill="#474747"/>
<path d="M70.5852 17.2756C70.0373 17.811 69.7634 18.4724 69.7634 19.2598L69.715 24.7402C69.6828 27.3228 68.7481 29.5118 66.9109 31.3071C65.106 33.1024 62.8821 34 60.2392 34C59.2723 34 58.4826 33.7165 57.8702 33.1496C57.2901 32.5512 57 31.7795 57 30.8346C57 29.8898 57.2901 29.1181 57.8702 28.5197C58.4826 27.9213 59.2723 27.622 60.2392 27.622C61.0772 27.622 61.7701 27.3543 62.3181 26.8189C62.8982 26.252 63.1883 25.5591 63.1883 24.7402C63.1883 24.4567 63.1883 24.1417 63.1883 23.7953C63.2205 22.5354 63.2366 21.8898 63.2366 21.8583V19.2598C63.2366 16.6457 64.1391 14.4567 65.944 12.6929C67.7812 10.8976 70.0373 10 72.7125 10C73.6794 10 74.469 10.2992 75.0814 10.8976C75.6938 11.4646 76 12.2205 76 13.1654C76 14.0787 75.7099 14.8189 75.1298 15.3858C74.5496 15.9528 73.7761 16.2835 72.8092 16.378C71.8745 16.4409 71.1332 16.7402 70.5852 17.2756Z" fill="#474747"/>
<path d="M148.477 27.3782C149.978 27.3782 151.253 26.8389 152.303 25.7605C153.384 24.6513 153.924 23.3263 153.924 21.7857C153.924 20.2451 153.384 18.9356 152.303 17.8571C151.253 16.7787 149.978 16.2395 148.477 16.2395C146.977 16.2395 145.702 16.7787 144.652 17.8571C143.601 18.9356 143.076 20.2451 143.076 21.7857V39.8571C143.076 40.7815 142.791 41.5364 142.221 42.1218C141.651 42.7073 140.916 43 140.016 43C139.115 43 138.38 42.7073 137.81 42.1218C137.27 41.5364 137 40.7815 137 39.8571V21.7857C137 18.458 138.095 15.6695 140.286 13.4202C142.506 11.1401 145.237 10 148.477 10C151.718 10 154.449 11.1401 156.669 13.4202C158.89 15.6695 160 18.458 160 21.7857C160 25.1134 158.89 27.9174 156.669 30.1975C154.449 32.4776 151.718 33.6176 148.477 33.6176C147.577 33.6176 146.842 33.3249 146.272 32.7395C145.732 32.1541 145.462 31.3992 145.462 30.4748C145.462 29.5504 145.732 28.8109 146.272 28.2563C146.842 27.6709 147.577 27.3782 148.477 27.3782Z" fill="#474747"/>
<path fill-rule="evenodd" clip-rule="evenodd" d="M117.3 8.00381C116.574 8.0285 115.967 8.10708 115.441 8.24441C114.056 8.60638 113.063 9.41237 112.163 10.9056C112.12 10.9761 112.076 11.0497 112.065 11.0691L112.045 11.1043L112.279 11.0225C112.408 10.9775 112.686 10.8798 112.898 10.8053C113.482 10.6003 113.744 10.5156 114.069 10.4262C114.811 10.222 115.527 10.1223 116.749 10.0529C117.238 10.0251 117.413 10.0106 117.667 9.97699C118.373 9.8837 118.849 9.71871 119.254 9.42665C119.446 9.28792 119.637 9.10569 119.933 8.7774C120.164 8.52172 120.304 8.37037 120.422 8.2472C120.474 8.1922 120.515 8.14718 120.512 8.14716C120.51 8.14713 120.39 8.13707 120.246 8.1248C119.624 8.0715 119.033 8.03336 118.49 8.01131C118.227 8.00064 117.524 7.9962 117.3 8.00381ZM112.873 8.26848C112.365 8.29352 111.871 8.35606 111.447 8.44921C110.588 8.63788 110.031 8.94555 109.84 9.33583C109.676 9.67052 109.773 10.0669 110.127 10.5158C110.249 10.6701 110.421 10.8501 110.598 11.0094L110.654 11.0589L110.742 10.9707C110.79 10.9223 110.886 10.8321 110.955 10.7705C111.084 10.6549 111.144 10.6028 111.701 10.1274C112.244 9.66351 112.461 9.46546 112.748 9.1702C113.009 8.90236 113.144 8.73942 113.275 8.53587C113.329 8.45129 113.413 8.28938 113.413 8.26931C113.413 8.25908 113.074 8.25856 112.873 8.26848ZM124.038 8.51775C123.573 8.54631 123.042 8.70721 122.484 8.98876C121.325 9.57379 120.326 10.6188 119.518 12.0942C118.673 13.6348 118.042 15.6399 117.664 17.9846C117.492 19.0531 117.372 20.2331 117.322 21.3542C117.285 22.1849 117.284 23.1174 117.319 23.8598C117.447 26.5824 117.933 29.0654 118.746 31.1501C119.266 32.4839 119.912 33.6227 120.644 34.4971C121.593 35.6306 122.662 36.3013 123.748 36.4432C124.067 36.485 124.43 36.4784 124.751 36.425C125.284 36.3362 125.824 36.1092 126.334 35.7587C127.493 34.9635 128.53 33.5296 129.385 31.54C129.631 30.9682 129.873 30.3204 130.078 29.686C130.583 28.1279 130.887 26.1058 130.974 23.724C130.983 23.4994 131.001 22.6726 131 22.5391C130.999 22.1911 130.977 21.357 130.96 20.958C130.802 17.3889 130.124 14.2258 129.121 12.3772C128.605 11.4265 127.89 10.507 127.149 9.84017C126.11 8.90496 125.052 8.45551 124.038 8.51775ZM108.731 10.5584C108.639 10.5764 108.54 10.6126 108.437 10.6663C108.216 10.7809 108.018 10.9405 107.755 11.2161C107.289 11.7036 106.771 12.4521 106.228 13.4225C106.174 13.52 106.123 13.6103 106.115 13.623L106.102 13.6462L106.213 13.7777C106.457 14.0682 106.789 14.4277 107.347 15.0071C107.537 15.2044 107.812 15.4912 107.959 15.6445C108.105 15.7977 108.226 15.9217 108.228 15.9199C108.242 15.9058 109.385 13.7723 109.394 13.7432C109.416 13.6793 109.464 13.4931 109.496 13.3511C109.554 13.0945 109.6 12.8005 109.626 12.5282C109.645 12.3329 109.645 11.8577 109.626 11.698C109.591 11.3936 109.54 11.1894 109.453 11.0028C109.341 10.7639 109.201 10.6256 109.012 10.5685C108.947 10.5486 108.807 10.5436 108.731 10.5584ZM117.561 10.7966C116.02 10.8247 114.791 10.9827 113.777 11.2827C111.684 11.902 110.393 13.1791 109.63 15.3847C109.558 15.5919 109.401 16.1065 109.401 16.1339C109.401 16.1466 110.243 15.8149 111.194 15.4278C111.836 15.1664 112.057 15.0785 112.284 14.9946C113.438 14.5683 114.321 14.4306 116.124 14.3955C116.361 14.3909 116.554 14.3866 116.555 14.3859C116.563 14.3726 118.152 10.8018 118.152 10.7964C118.152 10.7877 118.044 10.7878 117.561 10.7966ZM105.736 14.8251C105.442 15.1901 105.189 15.6361 104.956 16.1991C104.487 17.3293 104.168 18.8635 104.07 20.4524C104.057 20.6674 104.042 21.0604 104.045 21.1024L104.048 21.1336L105.73 22.508C106.656 23.264 107.415 23.8824 107.417 23.8824C107.42 23.8824 107.424 23.7814 107.427 23.6579C107.458 22.2752 107.548 20.4303 107.67 18.6864C107.706 18.1762 107.711 18.0743 107.711 17.8223C107.71 17.4686 107.687 17.1881 107.637 16.9242C107.468 16.0498 107.039 15.4666 106.193 14.9658C106.108 14.915 105.876 14.7893 105.828 14.7675L105.795 14.7524L105.736 14.8251ZM114.739 15.2312C112.894 15.2934 111.466 15.7842 110.435 16.7112C109.823 17.2607 109.342 17.9805 109.008 18.8439C108.651 19.7677 108.46 20.7863 108.394 22.1165C108.375 22.5032 108.379 23.4847 108.4 23.7396L108.405 23.7968L108.762 23.4849C109.155 23.1409 109.334 22.9637 109.628 22.6297C109.807 22.4266 110.196 22.0261 110.334 21.902C111.081 21.2323 111.793 20.8707 112.832 20.6336C113.273 20.533 113.698 20.4629 114.75 20.3165C115.379 20.2291 115.634 20.1926 115.637 20.1892C115.642 20.1839 116.418 15.2917 116.415 15.2879C116.405 15.2782 115.92 15.2459 115.603 15.2337C115.432 15.2272 114.904 15.2256 114.739 15.2312ZM124.545 15.4877C124.217 15.52 123.941 15.6296 123.651 15.8428C123.481 15.9682 123.247 16.1942 123.098 16.3771C122.641 16.94 122.279 17.6864 122.029 18.5835C121.785 19.4562 121.621 20.4151 121.558 21.3429C121.535 21.6833 121.532 21.7829 121.527 22.1921C121.519 23.025 121.568 23.732 121.687 24.5051C122.075 27.0154 123.124 29.0044 124.266 29.3947C124.437 29.4533 124.495 29.4627 124.681 29.4629C124.822 29.463 124.852 29.4609 124.92 29.4458C125.467 29.3233 125.93 28.8675 126.369 28.0181C126.66 27.4566 126.991 26.4696 127.139 25.7289C127.477 24.0258 127.468 21.2247 127.116 19.1777C126.953 18.2258 126.748 17.5493 126.451 16.9809C125.965 16.0534 125.395 15.5527 124.755 15.4906C124.678 15.4832 124.602 15.4821 124.545 15.4877ZM114.68 21.2114C112.937 21.2765 111.592 21.7355 110.646 22.5885C110.541 22.683 110.351 22.8815 110.257 22.9946C109.671 23.6978 109.322 24.5803 109.21 25.6409C109.181 25.9167 109.177 26.008 109.177 26.4069C109.177 26.8167 109.181 26.922 109.214 27.2521C109.324 28.3849 109.638 29.5965 110.163 30.9218C110.206 31.0308 110.244 31.1199 110.246 31.1199C110.249 31.1199 110.408 30.9526 110.6 30.7482C112.026 29.2278 112.739 28.5439 113.321 28.1374C113.564 27.9679 113.756 27.8594 114.302 27.5825C114.718 27.3714 114.767 27.3494 115.011 27.2634C115.42 27.1191 115.613 27.0302 115.833 26.8836L115.913 26.8306L115.908 26.7131C115.906 26.6484 115.873 25.3865 115.837 23.9089C115.8 22.4312 115.77 21.2216 115.769 21.221C115.768 21.2203 115.657 21.216 115.522 21.2115C115.252 21.2025 114.921 21.2025 114.68 21.2114ZM104 22.6045C104 22.8155 104.003 23.0781 104.007 23.1881C104.077 25.0494 104.379 27.0435 104.787 28.3257C104.816 28.416 104.857 28.5374 104.88 28.5955C105.185 29.3914 105.841 29.968 106.915 30.3831C107.392 30.5677 107.963 30.7245 108.871 30.9198C108.998 30.947 109.103 30.9676 109.105 30.9654C109.109 30.9616 108.82 30.0048 108.606 29.3124C107.973 27.2671 107.479 26.0332 106.89 25.0275C106.535 24.4201 106.179 23.946 105.742 23.4972C105.252 22.9937 104.766 22.6301 104.13 22.2905L104 22.2209L104 22.6045ZM115.438 28.0785C114.744 28.119 114.136 28.2835 113.571 28.5835C112.963 28.9063 112.454 29.3706 112.087 29.9388C111.973 30.1138 111.924 30.2009 111.841 30.3717C111.633 30.7976 111.508 31.2445 111.461 31.7253C111.444 31.9013 111.444 32.2598 111.461 32.4293C111.555 33.3513 111.941 34.1654 112.611 34.8541C112.755 35.0023 113.043 35.2613 113.079 35.2759C113.089 35.2796 113.148 35.2432 113.276 35.1556C113.527 34.9831 113.687 34.838 113.977 34.5167C114.282 34.1782 114.449 34.0145 114.684 33.822C114.966 33.5905 115.213 33.4257 115.493 33.2827C115.743 33.1543 115.934 33.0818 116.367 32.9503C116.814 32.8144 117.022 32.7365 117.28 32.6081C117.407 32.5453 117.426 32.5336 117.423 32.5202C117.421 32.5117 117.124 31.511 116.763 30.2963L116.106 28.0879L116.055 28.0832C115.965 28.075 115.552 28.0718 115.438 28.0785ZM106.043 30.77C106.043 30.7777 106.057 30.8418 106.075 30.9124C106.169 31.2837 106.289 31.6046 106.487 32.0142C106.83 32.7241 107.303 33.422 107.905 34.1085C108.029 34.2508 108.471 34.7041 108.607 34.8302C109.081 35.2681 109.54 35.6209 110.022 35.9177C110.883 36.4484 111.71 36.7402 112.531 36.8027C112.634 36.8105 112.994 36.8133 112.994 36.8062C112.994 36.7963 112.775 36.4421 112.665 36.2744C112.396 35.8635 112.141 35.5361 111.712 35.0518C111.409 34.7093 111.287 34.562 110.815 33.9688C110.179 33.1696 109.995 32.9562 109.592 32.551C108.903 31.8589 108.123 31.3676 107.215 31.0554C106.905 30.9488 106.595 30.8647 106.26 30.7964C106.05 30.7536 106.043 30.7528 106.043 30.77ZM117.304 33.6104C116.815 33.6531 116.355 33.7561 115.935 33.917C115.222 34.1898 114.713 34.5886 114.511 35.033C114.445 35.1775 114.412 35.3157 114.407 35.4719C114.399 35.6905 114.443 35.8835 114.552 36.1097C114.63 36.2728 114.701 36.3661 114.809 36.4519C115.379 36.9023 116.822 37.0722 119.229 36.9724C119.651 36.9549 120.7 36.8985 120.705 36.893C120.71 36.8869 117.946 33.622 117.93 33.615C117.908 33.606 117.397 33.6023 117.304 33.6104Z" fill="#C66D2C"/>
</svg>
