<svg width="24" height="24" viewBox="0 0 24 24" fill="none" xmlns="http://www.w3.org/2000/svg">
<path fill-rule="evenodd" clip-rule="evenodd" d="M11.8222 0.00315413C11.1766 0.0235838 10.6369 0.0886139 10.1697 0.202267C8.93823 0.501829 8.05563 1.16886 7.25556 2.40462C7.21775 2.46302 7.17887 2.5239 7.16916 2.53992L7.15151 2.56904L7.35917 2.50138C7.47339 2.46417 7.72115 2.38327 7.90975 2.32161C8.4285 2.152 8.66103 2.08188 8.9501 2.00787C9.61006 1.83891 10.2464 1.75639 11.3323 1.69892C11.7668 1.67593 11.9229 1.66393 12.1487 1.63613C12.7761 1.55892 13.1989 1.42238 13.5588 1.18068C13.7298 1.06586 13.8994 0.91505 14.163 0.643369C14.3683 0.431771 14.4922 0.306514 14.5971 0.204578C14.6439 0.159065 14.6802 0.121804 14.6777 0.121785C14.6752 0.121766 14.5689 0.113434 14.4413 0.103279C13.8876 0.0591717 13.3629 0.027606 12.8803 0.00936234C12.6465 0.000530938 12.021 -0.00314153 11.8222 0.00315413ZM7.88689 0.22219C7.43517 0.242914 6.99672 0.294672 6.61975 0.371762C5.85633 0.527898 5.36052 0.782523 5.19097 1.10552C5.04558 1.3825 5.13146 1.71052 5.44667 2.08208C5.55497 2.20975 5.70761 2.35868 5.86531 2.49056L5.91425 2.53148L5.99267 2.45854C6.03582 2.41843 6.12107 2.34384 6.18214 2.29279C6.29652 2.19718 6.35031 2.154 6.8451 1.76063C7.32801 1.37669 7.52065 1.21279 7.77617 0.968438C8.00795 0.746779 8.12816 0.611934 8.24417 0.443475C8.29237 0.37348 8.36696 0.239485 8.36696 0.222878C8.36696 0.214415 8.0658 0.213977 7.88689 0.22219ZM17.8116 0.428486C17.3981 0.452119 16.9262 0.585277 16.4302 0.818285C15.3996 1.30245 14.5123 2.16728 13.7934 3.38832C13.0426 4.66327 12.4819 6.32266 12.1461 8.26308C11.993 9.14743 11.8865 10.124 11.8418 11.0518C11.8088 11.7392 11.8076 12.5109 11.8387 13.1254C11.9527 15.3785 12.3849 17.4334 13.1076 19.1587C13.5699 20.2625 14.144 21.205 14.7946 21.9287C15.638 22.8667 16.5888 23.4218 17.5536 23.5392C17.8376 23.5738 18.1598 23.5683 18.445 23.5242C18.9192 23.4507 19.399 23.2628 19.8527 22.9727C20.8825 22.3146 21.8041 21.128 22.5644 19.4813C22.7829 19.0082 22.9982 18.4721 23.1808 17.947C23.6293 16.6576 23.8994 14.9841 23.9773 13.0129C23.9846 12.8271 24.0005 12.1428 24 12.0324C23.9987 11.7444 23.9798 11.0541 23.9641 10.7239C23.8238 7.7701 23.2213 5.15241 22.3296 3.62253C21.8711 2.83569 21.2359 2.07474 20.5771 1.5229C19.653 0.748933 18.7131 0.376971 17.8116 0.428486ZM4.20525 2.11731C4.12312 2.13222 4.03548 2.16213 3.94356 2.20663C3.7478 2.30139 3.5718 2.43353 3.33755 2.66162C2.92323 3.06503 2.46291 3.68446 1.98062 4.48756C1.93215 4.56829 1.88707 4.64297 1.88044 4.65353L1.8684 4.67272L1.96685 4.78156C2.18427 5.02193 2.47917 5.31946 2.97525 5.79898C3.14417 5.96224 3.38882 6.19961 3.51894 6.32646C3.64906 6.45331 3.75676 6.5559 3.75826 6.55443C3.77027 6.54269 4.78647 4.77705 4.79504 4.753C4.81391 4.70012 4.85671 4.54605 4.88519 4.42852C4.93665 4.21615 4.97803 3.97282 5.001 3.74745C5.01748 3.58584 5.01748 3.1926 5.001 3.06042C4.9696 2.80852 4.9243 2.63948 4.84683 2.48511C4.74758 2.28737 4.62298 2.17293 4.45551 2.12568C4.397 2.10918 4.27291 2.10503 4.20525 2.11731ZM12.054 2.31444C10.6847 2.33771 9.59176 2.46844 8.69073 2.71672C6.83066 3.22928 5.68292 4.28619 5.0043 6.11144C4.94053 6.28297 4.80071 6.70883 4.80071 6.73154C4.80071 6.74197 5.54915 6.46753 6.39442 6.14715C6.96517 5.93081 7.16176 5.8581 7.36382 5.78861C8.38972 5.43579 9.17393 5.32188 10.7771 5.2928C10.9873 5.28898 11.1595 5.28542 11.1599 5.28487C11.1673 5.27389 12.5798 2.31876 12.5798 2.31427C12.5798 2.3071 12.4839 2.30713 12.054 2.31444ZM1.54325 5.64838C1.28212 5.95043 1.05689 6.31955 0.849426 6.7855C0.432965 7.72083 0.149077 8.99046 0.0623831 10.3054C0.0506524 10.4833 0.0372627 10.8086 0.0402411 10.8434L0.0424553 10.8692L1.53815 12.0066C2.36079 12.6322 3.0356 13.1441 3.03775 13.1441C3.0399 13.1441 3.04365 13.0605 3.0461 12.9583C3.07352 11.8139 3.1538 10.2871 3.26243 8.84393C3.29422 8.42172 3.29846 8.33733 3.29834 8.1288C3.29819 7.83606 3.27764 7.60391 3.23254 7.38556C3.0831 6.66193 2.70106 6.17928 1.94968 5.76484C1.87346 5.7228 1.66758 5.61875 1.6248 5.60065L1.59531 5.58818L1.54325 5.64838ZM9.54591 5.98443C7.90535 6.03593 6.63662 6.44207 5.71971 7.20925C5.17613 7.66407 4.74811 8.25976 4.45154 8.97422C4.13416 9.73878 3.96425 10.5818 3.9056 11.6826C3.88855 12.0026 3.89203 12.8149 3.91135 13.0259L3.91568 13.0732L4.23246 12.8151C4.58194 12.5304 4.74154 12.3838 5.00307 12.1073C5.16205 11.9392 5.50722 11.6078 5.63022 11.5051C6.29401 10.9508 6.92696 10.6516 7.85096 10.4554C8.24296 10.3721 8.62002 10.3141 9.5557 10.193C10.1148 10.1207 10.3412 10.0904 10.3441 10.0876C10.3487 10.0832 11.0385 6.0345 11.0352 6.03135C11.0268 6.02333 10.5959 5.99657 10.3134 5.98652C10.1614 5.98111 9.69242 5.97984 9.54591 5.98443ZM18.2623 6.19672C17.9708 6.22344 17.7256 6.31412 17.4679 6.49058C17.3162 6.59441 17.1083 6.78143 16.9763 6.93275C16.5699 7.3986 16.2483 8.01637 16.0255 8.75876C15.8088 9.48102 15.6635 10.2746 15.6074 11.0424C15.5868 11.3241 15.5836 11.4065 15.5799 11.7452C15.5723 12.4345 15.6157 13.0196 15.7218 13.6594C16.0664 15.7369 16.9989 17.3829 18.0141 17.706C18.1665 17.7545 18.2175 17.7622 18.3831 17.7624C18.5089 17.7625 18.5354 17.7608 18.5954 17.7482C19.0819 17.6469 19.4933 17.2697 19.8838 16.5667C20.1419 16.102 20.4368 15.2852 20.5676 14.6722C20.8685 13.2627 20.8601 10.9446 20.5479 9.25054C20.4027 8.46272 20.2205 7.90283 19.956 7.43243C19.5246 6.66491 19.018 6.25047 18.4485 6.19912C18.3802 6.19297 18.3128 6.1921 18.2623 6.19672ZM9.49365 10.9336C7.94365 10.9874 6.7482 11.3673 5.90757 12.0732C5.81435 12.1515 5.64525 12.3157 5.56158 12.4093C5.04109 12.9913 4.73072 13.7217 4.63096 14.5993C4.60501 14.8276 4.6015 14.9031 4.6015 15.2333C4.6015 15.5725 4.60558 15.6596 4.63431 15.9328C4.73286 16.8703 5.01145 17.8729 5.47813 18.9698C5.5165 19.0599 5.54993 19.1337 5.55242 19.1337C5.55491 19.1337 5.69638 18.9953 5.86678 18.8261C7.13418 17.5678 7.76773 17.0018 8.28531 16.6654C8.50106 16.5252 8.6716 16.4354 9.15728 16.2062C9.52753 16.0315 9.57104 16.0133 9.78758 15.9422C10.1512 15.8227 10.3222 15.7491 10.5182 15.6278L10.5891 15.5839L10.585 15.4867C10.5827 15.4332 10.5542 14.3889 10.5216 13.1659C10.489 11.943 10.4619 10.942 10.4614 10.9415C10.4608 10.9409 10.3619 10.9374 10.2415 10.9337C10.002 10.9262 9.70736 10.9262 9.49365 10.9336ZM2.6126e-05 12.0865C3.91892e-05 12.2611 0.00301759 12.4785 0.00664262 12.5695C0.068046 14.1098 0.33699 15.7601 0.699545 16.8213C0.725071 16.896 0.76217 16.9964 0.781987 17.0445C1.05343 17.7032 1.63687 18.1804 2.59081 18.524C3.01476 18.6767 3.52309 18.8065 4.32971 18.9681C4.44247 18.9907 4.53626 19.0077 4.53814 19.0059C4.54149 19.0027 4.28453 18.2109 4.09417 17.6379C3.53185 15.9452 3.09272 14.924 2.56923 14.0917C2.25308 13.5891 1.93678 13.1967 1.54831 12.8252C1.11254 12.4086 0.680911 12.1076 0.115936 11.8266L0 11.769L2.6126e-05 12.0865ZM10.1673 16.6166C9.55031 16.6502 9.00981 16.7863 8.50739 17.0347C7.96691 17.3018 7.51498 17.686 7.18818 18.1563C7.0875 18.3011 7.04353 18.3732 6.96961 18.5145C6.7852 18.867 6.67368 19.2368 6.63179 19.6347C6.61645 19.7804 6.61654 20.0771 6.63197 20.2173C6.71588 20.9804 7.05905 21.6541 7.65419 22.2241C7.78222 22.3467 8.03794 22.5611 8.07063 22.5731C8.07908 22.5762 8.13197 22.5461 8.2455 22.4736C8.46885 22.3309 8.61028 22.2108 8.86827 21.9448C9.13998 21.6647 9.28815 21.5292 9.49692 21.3699C9.74787 21.1784 9.96753 21.042 10.2156 20.9236C10.4383 20.8174 10.6079 20.7573 10.9927 20.6485C11.3902 20.5361 11.5751 20.4716 11.8047 20.3653C11.917 20.3133 11.9339 20.3037 11.9316 20.2926C11.9302 20.2855 11.6662 19.4574 11.345 18.4521L10.7609 16.6245L10.7151 16.6206C10.6356 16.6138 10.2684 16.6111 10.1673 16.6166ZM1.81583 18.8441C1.81585 18.8505 1.82884 18.9036 1.84471 18.962C1.92817 19.2693 2.0348 19.5348 2.21084 19.8738C2.51593 20.4613 2.93578 21.0389 3.47074 21.607C3.58167 21.7248 3.97393 22.1 4.0953 22.2043C4.51669 22.5667 4.92468 22.8587 5.35263 23.1043C6.11806 23.5435 6.85337 23.785 7.58317 23.8367C7.67485 23.8432 7.99466 23.8455 7.99466 23.8396C7.99466 23.8314 7.79988 23.5383 7.70223 23.3995C7.46296 23.0594 7.23622 22.7885 6.85548 22.3877C6.58619 22.1042 6.4777 21.9823 6.05798 21.4915C5.49237 20.83 5.32874 20.6534 4.97052 20.3181C4.35858 19.7453 3.66445 19.3387 2.85757 19.0803C2.58198 18.9921 2.30634 18.9225 2.00846 18.866C1.82207 18.8306 1.81577 18.8299 1.81583 18.8441ZM11.8254 21.1948C11.391 21.2302 10.9822 21.3154 10.6085 21.4486C9.975 21.6743 9.52275 22.0044 9.34305 22.3721C9.28462 22.4917 9.25542 22.6061 9.2504 22.7353C9.24336 22.9163 9.28239 23.076 9.37934 23.2632C9.44923 23.3982 9.51164 23.4754 9.60816 23.5464C10.1147 23.9191 11.3973 24.0597 13.5367 23.9771C13.9116 23.9627 14.844 23.916 14.8485 23.9115C14.8535 23.9064 12.3967 21.2044 12.3818 21.1986C12.3628 21.1912 11.9083 21.1881 11.8254 21.1948Z" fill="#949390"/>
</svg>
