<svg width="27" height="24" viewBox="0 0 27 24" fill="none" xmlns="http://www.w3.org/2000/svg">
<path d="M27 11.9439C27 11.3471 26.7693 10.7748 26.3588 10.3529C25.9482 9.93093 25.3913 9.69388 24.8107 9.69388L7.47104 9.69388L13.2217 3.78388C13.6084 3.35735 13.819 2.79321 13.809 2.21031C13.799 1.62741 13.5692 1.07125 13.1681 0.659012C12.7669 0.246775 12.2258 0.0106354 11.6586 0.000350952C11.0914 -0.00993347 10.5425 0.206438 10.1274 0.603878L0.640282 10.3539C0.230289 10.7758 0 11.3476 0 11.9439C0 12.5401 0.230289 13.112 0.640282 13.5339L10.1274 23.2839C10.3279 23.5049 10.5696 23.6822 10.8381 23.8052C11.1067 23.9282 11.3966 23.9943 11.6906 23.9996C11.9845 24.005 12.2765 23.9494 12.5491 23.8362C12.8218 23.7231 13.0694 23.5546 13.2773 23.341C13.4852 23.1273 13.6491 22.8728 13.7592 22.5927C13.8693 22.3125 13.9234 22.0124 13.9182 21.7103C13.913 21.4082 13.8487 21.1103 13.729 20.8343C13.6093 20.5583 13.4368 20.3099 13.2217 20.1039L7.47104 14.1939L24.8107 14.1939C26.0192 14.1939 27 13.1859 27 11.9439Z" fill="#3B563C"/>
</svg>
