<svg width="32" height="28" viewBox="0 0 32 28" fill="none" xmlns="http://www.w3.org/2000/svg">
<path d="M-1.27064e-07 14.0655C-1.27064e-07 14.7617 0.273379 15.4293 0.759995 15.9216C1.24661 16.4139 1.9066 16.6905 2.59478 16.6905L23.1454 16.6905L16.3298 23.5855C15.8715 24.0831 15.6219 24.7412 15.6338 25.4213C15.6457 26.1014 15.918 26.7502 16.3934 27.2312C16.8688 27.7121 17.5102 27.9876 18.1824 27.9996C18.8546 28.0116 19.5052 27.7592 19.9971 27.2955L31.2411 15.9205C31.7271 15.4283 32 14.7611 32 14.0655C32 13.3698 31.7271 12.7027 31.2411 12.2105L19.9971 0.835479C19.7596 0.577575 19.4731 0.370718 19.1548 0.227246C18.8365 0.0837739 18.4929 0.00662727 18.1445 0.000408526C17.7961 -0.00581022 17.45 0.0590256 17.1269 0.191049C16.8038 0.323073 16.5103 0.519579 16.2639 0.768844C16.0176 1.01811 15.8233 1.31503 15.6928 1.64189C15.5623 1.96875 15.4982 2.31885 15.5044 2.67131C15.5105 3.02377 15.5868 3.37136 15.7286 3.69336C15.8704 4.01536 16.0749 4.30516 16.3298 4.54548L23.1454 11.4405L2.59478 11.4405C1.16246 11.4405 -1.27064e-07 12.6165 -1.27064e-07 14.0655Z" fill="#C66D2C"/>
</svg>
