<svg width="195" height="195" viewBox="0 0 195 195" fill="none" xmlns="http://www.w3.org/2000/svg">
<path d="M127.969 97.5C127.969 105.581 124.759 113.331 119.045 119.045C113.331 124.759 105.581 127.969 97.5 127.969C89.4192 127.969 81.6693 124.759 75.9553 119.045C70.2413 113.331 67.0313 105.581 67.0312 97.5C67.0313 89.4192 70.2413 81.6693 75.9553 75.9553C81.6693 70.2413 89.4192 67.0312 97.5 67.0312C105.581 67.0312 113.331 70.2413 119.045 75.9553C124.759 81.6693 127.969 89.4192 127.969 97.5Z" fill="#C66D2C"/>
<path d="M0 97.5C0 97.5 36.5625 30.4688 97.5 30.4688C158.438 30.4688 195 97.5 195 97.5C195 97.5 158.438 164.531 97.5 164.531C36.5625 164.531 0 97.5 0 97.5ZM97.5 140.156C108.813 140.156 119.663 135.662 127.663 127.663C135.662 119.663 140.156 108.813 140.156 97.5C140.156 86.1869 135.662 75.3371 127.663 67.3375C119.663 59.3379 108.813 54.8438 97.5 54.8438C86.1869 54.8438 75.3371 59.3379 67.3375 67.3375C59.3379 75.3371 54.8438 86.1869 54.8438 97.5C54.8438 108.813 59.3379 119.663 67.3375 127.663C75.3371 135.662 86.1869 140.156 97.5 140.156Z" fill="#C66D2C"/>
</svg>
