<svg width="122" height="54" viewBox="0 0 122 54" fill="none" xmlns="http://www.w3.org/2000/svg">
<path d="M24 10.9486C24 10.4015 23.795 9.87694 23.43 9.49015C23.065 9.10335 22.57 8.88605 22.0539 8.88605L6.64092 8.88605L11.7526 3.46855C12.0964 3.07757 12.2835 2.56045 12.2746 2.02612C12.2657 1.49179 12.0615 0.981981 11.705 0.604095C11.3484 0.22621 10.8674 0.00975037 10.3632 0.000322342C9.85903 -0.00910568 9.37109 0.189236 9.00217 0.553555L0.569139 9.49105C0.204701 9.87777 0 10.402 0 10.9486C0 11.4951 0.204701 12.0193 0.569139 12.4061L9.00217 21.3436C9.18034 21.5462 9.39519 21.7087 9.6339 21.8214C9.87262 21.9342 10.1303 21.9948 10.3916 21.9997C10.6529 22.0046 10.9125 21.9536 11.1548 21.8499C11.3971 21.7462 11.6172 21.5918 11.802 21.3959C11.9868 21.2001 12.1325 20.9668 12.2304 20.7099C12.3283 20.4531 12.3763 20.178 12.3717 19.9011C12.3671 19.6242 12.3099 19.3511 12.2036 19.0981C12.0972 18.8451 11.9438 18.6174 11.7526 18.4286L6.64092 13.0111L22.0539 13.0111C23.1282 13.0111 24 12.0871 24 10.9486Z" fill="#474747" fill-opacity="0.53"/>
<path fill-rule="evenodd" clip-rule="evenodd" d="M73.5079 32.5634C73.5079 32.2068 73.5755 31.8749 73.7107 31.5675C73.846 31.2479 74.0304 30.9774 74.264 30.7561C74.4977 30.5225 74.7682 30.3381 75.0756 30.2029C75.383 30.0676 75.715 30 76.0715 30C76.4158 30 76.7417 30.0676 77.0491 30.2029C77.3688 30.3381 77.6454 30.5225 77.879 30.7561C78.1249 30.9774 78.3155 31.2479 78.4508 31.5675C78.586 31.8749 78.6537 32.2068 78.6537 32.5634C78.6537 32.9199 78.586 33.2518 78.4508 33.5592C78.3155 33.8666 78.1249 34.137 77.879 34.3706C77.6454 34.6042 77.3688 34.7886 77.0491 34.9239C76.7417 35.0591 76.4158 35.1267 76.0715 35.1267C75.715 35.1267 75.383 35.0591 75.0756 34.9239C74.7682 34.7886 74.4977 34.6042 74.264 34.3706C74.0304 34.137 73.846 33.8666 73.7107 33.5592C73.5755 33.2518 73.5079 32.9199 73.5079 32.5634ZM78.4877 51.5581C78.4877 51.89 78.4262 52.2035 78.3032 52.4986C78.1803 52.7814 78.0081 53.0334 77.7868 53.2547C77.5778 53.4637 77.3257 53.6297 77.0306 53.7526C76.7478 53.8756 76.4404 53.937 76.1084 53.937C75.7764 53.937 75.4629 53.8756 75.1678 53.7526C74.885 53.6297 74.6329 53.4637 74.4116 53.2547C74.1903 53.0334 74.012 52.7814 73.8767 52.4986C73.7538 52.2035 73.6923 51.89 73.6923 51.5581V39.1654C73.6923 38.8335 73.7538 38.5261 73.8767 38.2433C74.012 37.9483 74.1903 37.6962 74.4116 37.4872C74.6329 37.2659 74.8911 37.0938 75.1862 36.9709C75.4936 36.8479 75.8133 36.7865 76.1453 36.7865C76.4773 36.7865 76.7847 36.8479 77.0675 36.9709C77.3503 37.0938 77.5962 37.2659 77.8053 37.4872C78.0266 37.6962 78.1926 37.9483 78.3032 38.2433C78.4262 38.5261 78.4877 38.8335 78.4877 39.1654V51.5581ZM86.7742 37.036C86.8691 36.8916 87.1229 36.687 87.3383 36.5812C87.9089 36.3008 96.9114 36.2865 97.4521 36.5653C97.686 36.6859 98.0401 37.1491 98.5005 37.9367C98.8828 38.5908 99.8427 40.1957 100.634 41.5031C101.425 42.8105 102.167 44.0675 102.284 44.2966C102.709 45.1322 102.559 45.527 100.455 49.1219C97.8782 53.5228 97.8443 53.5739 97.3735 53.7699C97.0574 53.9016 95.982 53.937 92.3087 53.937C88.2434 53.937 87.6025 53.9119 87.3122 53.741C87.0954 53.6133 86.397 52.5822 85.3101 50.7849C84.392 49.2669 83.3549 47.5585 83.0053 46.9886C82.2327 45.7293 82.1211 45.1087 82.5252 44.3192C82.7895 43.8029 86.4464 37.5347 86.7742 37.036ZM88.5982 45.1601C88.6075 43.7414 89.386 42.5556 90.7562 41.8732C91.3891 41.5579 91.6371 41.5032 92.4278 41.5043C93.9889 41.5062 95.1687 42.2279 95.8578 43.6025C96.1761 44.2372 96.2305 44.4825 96.2305 45.282C96.2305 46.0816 96.1761 46.3268 95.8578 46.9616C95.174 48.3254 93.9072 49.1016 92.3651 49.1016C91.2429 49.1016 90.3621 48.7004 89.5789 47.8322C88.9072 47.0875 88.5912 46.2269 88.5982 45.1601ZM21.3488 52.4553C21.4645 52.1891 21.5224 51.8998 21.5224 51.5874V44.124V44.0373C21.534 43.748 21.6034 43.4761 21.7307 43.2215C21.858 42.9669 22.02 42.7471 22.2168 42.5619C22.4251 42.3768 22.6623 42.2322 22.9285 42.128C23.1946 42.0123 23.4782 41.9545 23.7791 41.9545C24.0915 41.9545 24.3808 42.0065 24.647 42.1107C24.9247 42.2148 25.162 42.3652 25.3587 42.5619C25.567 42.7471 25.729 42.9727 25.8448 43.2389C25.9605 43.505 26.0241 43.8001 26.0357 44.124V51.5874C26.0357 51.8998 26.0994 52.1891 26.2267 52.4553C26.354 52.7214 26.5218 52.9528 26.7301 53.1495C26.9384 53.3462 27.1814 53.5024 27.4591 53.6182C27.7369 53.7339 28.032 53.7917 28.3444 53.7917C28.6453 53.7917 28.9289 53.7339 29.195 53.6182C29.4612 53.5024 29.6927 53.3462 29.8894 53.1495C30.0977 52.9528 30.2597 52.7214 30.3754 52.4553C30.4912 52.1891 30.549 51.8998 30.549 51.5874V44.124C30.549 44.0315 30.5432 43.9621 30.5317 43.9158C30.4969 43.0248 30.2944 42.1859 29.9241 41.399C29.5653 40.6122 29.0851 39.9295 28.4833 39.351C27.8931 38.7608 27.193 38.298 26.3829 37.9624C25.5844 37.6153 24.728 37.4417 23.8138 37.4417C22.9458 37.4417 22.1242 37.5979 21.3488 37.9104C20.5735 38.2228 19.8733 38.6509 19.2484 39.1948C18.6466 38.6509 17.9523 38.2228 17.1653 37.9104C16.39 37.5979 15.5625 37.4417 14.683 37.4417C13.7688 37.4417 12.9066 37.6153 12.0965 37.9624C11.2865 38.3096 10.5747 38.784 9.9614 39.3857C9.35963 39.9874 8.87937 40.6932 8.52062 41.5032C8.17344 42.3016 7.99985 43.1579 7.99985 44.072V51.5874C7.99985 51.8998 8.0635 52.1891 8.1908 52.4553C8.3181 52.7214 8.4859 52.9528 8.6942 53.1495C8.90251 53.3462 9.14553 53.5024 9.42328 53.6182C9.70102 53.7339 9.99612 53.7917 10.3086 53.7917C10.6095 53.7917 10.893 53.7339 11.1592 53.6182C11.4253 53.5024 11.6568 53.3462 11.8535 53.1495C12.0618 52.9528 12.2238 52.7214 12.3396 52.4553C12.4553 52.1891 12.5132 51.8998 12.5132 51.5874V44.124V44.0373C12.5132 43.7364 12.571 43.4587 12.6867 43.2041C12.814 42.9496 12.9818 42.7297 13.1902 42.5446C13.3985 42.3595 13.6357 42.2148 13.9019 42.1107C14.1796 42.0065 14.4689 41.9545 14.7698 41.9545C15.4063 41.9545 15.9329 42.157 16.3495 42.5619C16.7661 42.9554 16.986 43.4761 17.0091 44.124V51.5874C17.0091 51.8998 17.0728 52.1891 17.2001 52.4553C17.3273 52.7214 17.4952 52.9528 17.7035 53.1495C17.9118 53.3462 18.1548 53.5024 18.4325 53.6182C18.7103 53.7339 19.0054 53.7917 19.3178 53.7917C19.6187 53.7917 19.9022 53.7339 20.1684 53.6182C20.4346 53.5024 20.666 53.3462 20.8628 53.1495C21.0711 52.9528 21.2331 52.7214 21.3488 52.4553ZM37.4229 47.1962C37.2261 46.7333 37.1278 46.2416 37.1278 45.7209C37.1278 45.2002 37.2261 44.7142 37.4229 44.2629C37.6312 43.8001 37.9031 43.4009 38.2387 43.0653C38.5859 42.7182 38.9852 42.4462 39.4365 42.2495C39.8994 42.0528 40.3854 41.9545 40.8946 41.9545C41.4154 41.9545 41.9015 42.0528 42.3528 42.2495C42.8157 42.4462 43.2149 42.7182 43.5505 43.0653C43.8861 43.4009 44.1523 43.8001 44.349 44.2629C44.5458 44.7142 44.6441 45.2002 44.6441 45.7209C44.6441 46.2416 44.5458 46.7333 44.349 47.1962C44.1523 47.6475 43.8861 48.0467 43.5505 48.3938C43.2149 48.7294 42.8157 48.9955 42.3528 49.1922C41.9015 49.3889 41.4154 49.4873 40.8946 49.4873C40.3854 49.4873 39.8994 49.3889 39.4365 49.1922C38.9852 48.9955 38.5859 48.7294 38.2387 48.3938C37.9031 48.0467 37.6312 47.6475 37.4229 47.1962ZM33.2741 42.5099C32.8343 43.505 32.6145 44.5753 32.6145 45.7209C32.6145 46.8548 32.8343 47.9252 33.2741 48.9319C33.7138 49.9385 34.3098 50.8179 35.0621 51.5701C35.8143 52.3222 36.688 52.9181 37.6832 53.3578C38.6901 53.7859 39.7605 54 40.8946 54C42.0403 54 43.1108 53.7859 44.106 53.3578C45.1128 52.9181 45.9866 52.3222 46.7272 51.5701C47.4794 50.8179 48.0696 49.9385 48.4978 48.9319C48.9376 47.9252 49.1575 46.8548 49.1575 45.7209C49.1575 44.5753 48.9376 43.505 48.4978 42.5099C48.0696 41.5032 47.4794 40.6238 46.7272 39.8717C45.9866 39.1195 45.1128 38.5294 44.106 38.1013C43.1108 37.6616 42.0403 37.4417 40.8946 37.4417C39.7605 37.4417 38.6901 37.6616 37.6832 38.1013C36.688 38.5294 35.8143 39.1195 35.0621 39.8717C34.3098 40.6238 33.7138 41.5032 33.2741 42.5099ZM121.815 52.12C121.938 51.8372 122 51.5299 122 51.1979V44.7434V44.725V44.6328C122 43.4525 121.785 42.346 121.354 41.3133C120.924 40.2806 120.328 39.3831 119.565 38.6208C118.815 37.8463 117.93 37.2377 116.909 36.7951C115.889 36.3525 114.788 36.1312 113.608 36.1312C112.428 36.1312 111.327 36.3525 110.306 36.7951C109.298 37.2377 108.419 37.8463 107.669 38.6208C106.919 39.3831 106.329 40.2806 105.898 41.3133C105.468 42.346 105.253 43.4525 105.253 44.6328V44.6512V44.7434V51.1979C105.253 51.5299 105.321 51.8372 105.456 52.12C105.591 52.4028 105.769 52.6548 105.991 52.8761C106.212 53.0851 106.47 53.2511 106.765 53.374C107.06 53.4847 107.374 53.54 107.706 53.54C108.038 53.54 108.345 53.4847 108.628 53.374C108.911 53.2511 109.157 53.0851 109.366 52.8761C109.575 52.6548 109.741 52.4028 109.864 52.12C109.987 51.8372 110.048 51.5299 110.048 51.1979V44.6328C110.048 44.1041 110.134 43.6185 110.306 43.1759C110.479 42.721 110.718 42.3276 111.026 41.9956C111.345 41.6637 111.721 41.4055 112.151 41.2211C112.594 41.0244 113.079 40.926 113.608 40.926C114.112 40.926 114.579 41.0182 115.01 41.2027C115.44 41.3871 115.815 41.6453 116.135 41.9772C116.454 42.2968 116.706 42.678 116.891 43.1206C117.088 43.5509 117.198 44.0119 117.223 44.5037C117.211 44.5406 117.204 44.5836 117.204 44.6328V44.7434V51.1979C117.204 51.5299 117.266 51.8372 117.389 52.12C117.524 52.4028 117.702 52.6548 117.924 52.8761C118.157 53.0851 118.422 53.2511 118.717 53.374C119.012 53.4847 119.326 53.54 119.657 53.54C119.989 53.54 120.297 53.4847 120.58 53.374C120.862 53.2511 121.108 53.0851 121.317 52.8761C121.526 52.6548 121.692 52.4028 121.815 52.12ZM64.9766 35.4223C64.5882 35.5927 60.3084 38.3033 59.8895 38.6443L59.625 38.8595L60.1002 39.6107C60.3615 40.0238 60.5481 40.4062 60.5148 40.4605C60.4549 40.5577 58.7384 41.6961 58.2793 41.9429C58.0678 42.0568 57.9972 41.9915 57.5936 41.3102C57.3461 40.8924 57.0875 40.5497 57.019 40.5485C56.9504 40.5474 55.8982 41.1873 54.6808 41.9705C53.4633 42.7538 52.2713 43.5203 52.0317 43.6738C51.4295 44.0599 51.1965 44.4495 51.2849 44.9227C51.3719 45.3884 53.8116 49.1708 54.0956 49.2803C54.5556 49.4577 54.911 49.2973 56.9521 47.9921C58.1273 47.2405 59.1298 46.672 59.1799 46.729C59.2299 46.7859 60.1001 48.1542 61.1137 49.7698C62.1274 51.3853 63.0956 52.8591 63.2652 53.045C63.7539 53.5803 64.6293 53.9387 65.4443 53.937C67.5335 53.9328 69.0203 51.9228 68.3762 49.9736C68.2686 49.6482 67.3101 48.017 66.2461 46.3488L64.3117 43.3159L64.5732 43.1032C64.717 42.986 65.5696 42.4296 66.4678 41.8665C68.3327 40.6976 68.7152 40.3281 68.6096 39.7977C68.5153 39.3234 66.3775 35.9152 65.9449 35.5495C65.5551 35.2199 65.465 35.208 64.9766 35.4223ZM2.33333 53.9999C3.622 53.9999 4.66667 52.9552 4.66667 51.6666C4.66667 50.3779 3.622 49.3332 2.33333 49.3332C1.04467 49.3332 0 50.3779 0 51.6666C0 52.9552 1.04467 53.9999 2.33333 53.9999Z" fill="#474747" fill-opacity="0.53"/>
</svg>
